<svg width="23" height="22" viewBox="0 0 23 22" fill="none" xmlns="http://www.w3.org/2000/svg">
<path d="M11.4497 8.10694C6.66293 9.57978 3.6997 13.7353 4.82187 17.3473C5.94404 20.9768 10.7308 22.7126 15.5175 21.2223C20.3043 19.7319 23.2675 15.5939 22.1453 11.9819C21.0232 8.35241 16.2364 6.61656 11.4497 8.10694Z" fill="#69454A"/>
<path d="M18.884 6.51134C20.5147 6.00285 21.3914 4.23194 20.8653 2.53115C20.3393 0.830367 18.6035 -0.133995 16.9904 0.374487C15.3597 0.882968 14.483 2.65389 15.009 4.35467C15.535 6.05546 17.2709 7.01982 18.9015 6.51134H18.884Z" fill="#69454A"/>
<path d="M10.9762 7.16014C12.6068 6.65166 13.4835 4.88074 12.9575 3.17995C12.4315 1.47917 10.6957 0.514808 9.065 1.02329C7.43435 1.53177 6.55766 3.30269 7.08368 5.00348C7.60969 6.70426 9.34554 7.66862 10.9762 7.16014Z" fill="#69454A"/>
<path d="M4.05029 11.1052C5.68094 10.5968 6.55763 8.82584 6.03161 7.12505C5.5056 5.42427 3.76975 4.45991 2.1391 4.96839C0.50845 5.45934 -0.368243 7.24779 0.157772 8.94857C0.683788 10.6494 2.41964 11.6137 4.05029 11.1052Z" fill="#69454A"/>
</svg>
