<svg width="631" height="227" viewBox="0 0 631 227" fill="none" xmlns="http://www.w3.org/2000/svg">
<path d="M216.696 209.735V213.572L220.611 209.657C220.17 209.605 219.859 209.476 219.691 209.281C219.509 209.087 219.419 208.763 219.419 208.335C219.419 207.842 219.535 207.48 219.781 207.259C220.028 207.039 220.43 206.935 221 206.935H224.098C224.669 206.935 225.083 207.039 225.317 207.259C225.563 207.48 225.68 207.842 225.68 208.335C225.68 208.802 225.563 209.152 225.317 209.385C225.07 209.618 224.72 209.735 224.254 209.735H223.969L220.287 213.39C220.974 213.896 221.596 214.557 222.167 215.386C222.737 216.216 223.398 217.473 224.15 219.171H224.565C225.057 219.171 225.433 219.288 225.68 219.508C225.926 219.728 226.043 220.078 226.043 220.532C226.043 221.025 225.913 221.388 225.667 221.608C225.42 221.828 225.006 221.932 224.435 221.932H222.88C222.193 221.932 221.648 221.465 221.22 220.558C221.143 220.389 221.091 220.26 221.039 220.156C220.481 218.977 219.976 218.056 219.509 217.421C219.043 216.773 218.498 216.19 217.876 215.658L216.683 216.799V219.171H216.891C217.344 219.171 217.694 219.288 217.941 219.521C218.187 219.754 218.304 220.091 218.304 220.545C218.304 221.038 218.174 221.4 217.928 221.621C217.681 221.841 217.267 221.945 216.696 221.945H213.43C212.846 221.945 212.431 221.841 212.185 221.621C211.939 221.4 211.822 221.051 211.822 220.545C211.822 220.091 211.939 219.754 212.172 219.521C212.406 219.288 212.756 219.171 213.209 219.171H213.43V209.722H213.209C212.756 209.722 212.419 209.605 212.185 209.372C211.952 209.139 211.835 208.789 211.835 208.335C211.835 207.842 211.952 207.48 212.198 207.259C212.444 207.039 212.846 206.935 213.417 206.935H216.683C217.254 206.935 217.656 207.039 217.915 207.259C218.174 207.48 218.291 207.842 218.291 208.335C218.291 208.789 218.174 209.139 217.928 209.372C217.681 209.605 217.344 209.722 216.878 209.722H216.67L216.696 209.735Z" fill="#69454A"/>
<path d="M240.509 219.184H240.717C241.17 219.184 241.52 219.301 241.767 219.547C242.013 219.793 242.13 220.13 242.13 220.584C242.13 221.076 242 221.426 241.754 221.647C241.507 221.867 241.093 221.971 240.522 221.971H239.33C238.902 221.971 238.591 221.893 238.383 221.725C238.176 221.569 238.007 221.271 237.865 220.856C237.165 221.323 236.426 221.673 235.635 221.919C234.844 222.165 234.054 222.282 233.25 222.282C231.889 222.282 230.826 221.945 230.048 221.271C229.27 220.597 228.881 219.677 228.881 218.497C228.881 217.227 229.387 216.242 230.385 215.542C231.383 214.842 232.796 214.492 234.611 214.492C235.013 214.492 235.441 214.518 235.907 214.557C236.361 214.596 236.88 214.66 237.437 214.764V214.518C237.437 213.753 237.256 213.183 236.893 212.781C236.53 212.379 235.985 212.185 235.272 212.185C234.715 212.185 234.002 212.392 233.133 212.807C232.265 213.222 231.63 213.429 231.228 213.429C230.826 213.429 230.515 213.312 230.269 213.079C230.022 212.846 229.906 212.535 229.906 212.159C229.906 211.472 230.411 210.927 231.409 210.538C232.407 210.137 233.769 209.942 235.493 209.942C237.217 209.942 238.578 210.292 239.356 210.979C240.133 211.666 240.522 212.846 240.522 214.492V219.184H240.509ZM237.45 216.747C237.022 216.656 236.646 216.579 236.283 216.54C235.933 216.488 235.596 216.475 235.298 216.475C234.365 216.475 233.639 216.631 233.12 216.942C232.589 217.253 232.33 217.68 232.33 218.238C232.33 218.73 232.498 219.106 232.835 219.353C233.172 219.612 233.652 219.741 234.287 219.741C234.87 219.741 235.415 219.651 235.933 219.482C236.452 219.314 236.957 219.054 237.45 218.691V216.747Z" fill="#69454A"/>
<path d="M249.843 219.404H253.965L254.043 218.536C254.094 217.888 254.211 217.46 254.406 217.253C254.6 217.045 254.924 216.955 255.378 216.955C255.831 216.955 256.13 217.071 256.324 217.318C256.519 217.564 256.609 217.966 256.609 218.536V220.402C256.609 221.063 256.531 221.491 256.363 221.686C256.207 221.867 255.793 221.958 255.144 221.958H247.276C246.77 221.958 246.381 221.854 246.135 221.634C245.889 221.413 245.746 221.102 245.746 220.688C245.746 220.454 245.798 220.208 245.915 219.962C246.019 219.715 246.174 219.482 246.369 219.275L252.513 212.794H248.624V213.39C248.624 213.934 248.52 214.336 248.313 214.596C248.106 214.855 247.781 214.997 247.354 214.997C246.887 214.997 246.55 214.881 246.343 214.647C246.148 214.414 246.044 213.999 246.044 213.39V211.783C246.044 211.122 246.122 210.707 246.278 210.526C246.433 210.344 246.835 210.253 247.496 210.253H254.963C255.481 210.253 255.87 210.357 256.13 210.577C256.389 210.798 256.519 211.135 256.519 211.575C256.519 211.796 256.467 212.016 256.35 212.249C256.233 212.483 256.065 212.703 255.844 212.949L249.817 219.404H249.843Z" fill="#69454A"/>
<path d="M266.98 209.981C269.028 209.981 270.687 210.551 271.97 211.705C273.241 212.846 273.876 214.323 273.876 216.125C273.876 217.927 273.241 219.404 271.97 220.558C270.7 221.699 269.028 222.282 266.98 222.282C264.931 222.282 263.285 221.712 262.002 220.558C260.731 219.404 260.096 217.927 260.096 216.125C260.096 214.323 260.731 212.859 262.015 211.705C263.298 210.551 264.944 209.981 266.98 209.981ZM266.98 212.651C265.994 212.651 265.178 212.975 264.543 213.623C263.907 214.272 263.583 215.088 263.583 216.099C263.583 217.11 263.907 217.953 264.543 218.614C265.178 219.275 265.994 219.612 266.98 219.612C267.965 219.612 268.781 219.275 269.417 218.614C270.052 217.953 270.376 217.11 270.376 216.099C270.376 215.088 270.052 214.272 269.417 213.623C268.781 212.975 267.965 212.651 266.967 212.651H266.98Z" fill="#69454A"/>
<path d="M281.563 215.075L284.233 212.664C283.974 212.574 283.793 212.47 283.689 212.327C283.598 212.185 283.546 211.964 283.546 211.653C283.546 211.135 283.663 210.772 283.883 210.564C284.117 210.357 284.519 210.253 285.102 210.253H287.902C288.472 210.253 288.887 210.357 289.12 210.564C289.367 210.772 289.483 211.135 289.483 211.627C289.483 212.003 289.419 212.262 289.276 212.431C289.133 212.599 288.848 212.729 288.42 212.807C288.019 212.885 287.669 213.014 287.357 213.183C287.046 213.351 286.696 213.649 286.281 214.064L285.387 214.997L288.731 219.145H289.043C289.535 219.145 289.898 219.262 290.144 219.482C290.391 219.703 290.507 220.052 290.507 220.506C290.507 220.999 290.391 221.362 290.144 221.582C289.898 221.802 289.483 221.906 288.9 221.906H285.802C285.257 221.906 284.856 221.815 284.609 221.634C284.363 221.452 284.246 221.154 284.246 220.752C284.246 220.454 284.324 220.208 284.467 220.027C284.609 219.845 284.843 219.69 285.18 219.56L283.119 217.045L281.563 218.471V221.076C281.563 221.401 281.511 221.621 281.394 221.738C281.291 221.854 281.083 221.919 280.798 221.919H278.517C277.959 221.919 277.557 221.815 277.324 221.595C277.078 221.375 276.961 221.012 276.961 220.519C276.961 220.065 277.078 219.728 277.298 219.495C277.531 219.262 277.869 219.145 278.309 219.145H278.517V208.154H278.309C277.856 208.154 277.519 208.037 277.285 207.791C277.052 207.544 276.935 207.194 276.935 206.754C276.935 206.261 277.052 205.911 277.298 205.678C277.544 205.457 277.946 205.341 278.517 205.341H280.798C281.083 205.341 281.278 205.393 281.394 205.522C281.498 205.639 281.563 205.859 281.563 206.183V215.049V215.075Z" fill="#69454A"/>
<path d="M303.211 213.027H303.004C302.55 213.027 302.2 212.911 301.967 212.677C301.733 212.444 301.617 212.094 301.617 211.64C301.617 211.148 301.733 210.785 301.967 210.577C302.2 210.37 302.615 210.266 303.198 210.266H305.596C305.83 210.266 305.998 210.318 306.128 210.409C306.257 210.5 306.322 210.642 306.322 210.811V219.184H306.53C306.983 219.184 307.333 219.301 307.58 219.534C307.826 219.767 307.943 220.104 307.943 220.545C307.943 221.051 307.826 221.413 307.58 221.621C307.333 221.828 306.918 221.945 306.335 221.945H304.209C303.976 221.945 303.794 221.893 303.665 221.789C303.535 221.686 303.47 221.543 303.47 221.375V220.415C303.068 221.025 302.576 221.478 301.98 221.776C301.383 222.075 300.709 222.23 299.906 222.23C298.544 222.23 297.533 221.815 296.885 220.999C296.224 220.182 295.9 218.925 295.9 217.24V213.014H295.68C295.226 213.014 294.876 212.898 294.643 212.664C294.409 212.431 294.293 212.081 294.293 211.627C294.293 211.135 294.409 210.772 294.656 210.564C294.902 210.357 295.317 210.253 295.9 210.253H298.285C298.519 210.253 298.687 210.305 298.804 210.396C298.92 210.487 298.985 210.629 298.985 210.798V216.682C298.985 217.719 299.128 218.445 299.413 218.873C299.698 219.301 300.178 219.508 300.826 219.508C301.526 219.508 302.096 219.249 302.55 218.73C303.004 218.212 303.224 217.525 303.224 216.682V213.027H303.211Z" fill="#69454A"/>
<path d="M330.109 219.184V209.735H329.889C329.435 209.735 329.085 209.618 328.852 209.385C328.619 209.152 328.502 208.802 328.502 208.348C328.502 207.855 328.632 207.505 328.878 207.272C329.137 207.052 329.539 206.935 330.109 206.935H333.233C334.996 206.935 336.293 207.013 337.109 207.168C337.926 207.324 338.626 207.57 339.196 207.933C340.22 208.542 340.998 209.411 341.543 210.538C342.087 211.666 342.359 212.962 342.359 214.44C342.359 215.995 342.048 217.369 341.426 218.536C340.804 219.703 339.922 220.584 338.781 221.193C338.263 221.465 337.667 221.66 336.967 221.776C336.28 221.893 335.243 221.958 333.881 221.958H330.096C329.513 221.958 329.098 221.854 328.852 221.634C328.606 221.413 328.489 221.063 328.489 220.558C328.489 220.104 328.606 219.767 328.839 219.534C329.072 219.301 329.422 219.184 329.876 219.184H330.096H330.109ZM333.376 209.696V219.184H334.102C335.696 219.184 336.876 218.795 337.628 218.017C338.393 217.24 338.769 216.034 338.769 214.414C338.769 212.794 338.38 211.627 337.615 210.85C336.85 210.072 335.683 209.67 334.128 209.67C333.92 209.67 333.778 209.67 333.661 209.67C333.557 209.67 333.467 209.67 333.376 209.683V209.696Z" fill="#69454A"/>
<path d="M353.287 219.184H356.009C356.593 219.184 357.007 219.288 357.254 219.495C357.5 219.702 357.617 220.052 357.617 220.545C357.617 221.038 357.487 221.4 357.241 221.621C356.994 221.841 356.58 221.945 356.009 221.945H347.454C346.883 221.945 346.469 221.841 346.222 221.621C345.976 221.4 345.846 221.038 345.846 220.545C345.846 220.052 345.963 219.702 346.209 219.495C346.456 219.288 346.87 219.184 347.454 219.184H350.176V213.027H348.75C348.18 213.027 347.778 212.923 347.531 212.703C347.285 212.483 347.169 212.133 347.169 211.627C347.169 211.122 347.285 210.772 347.519 210.564C347.752 210.357 348.167 210.253 348.75 210.253H352.561C352.794 210.253 352.976 210.305 353.106 210.396C353.235 210.487 353.3 210.629 353.3 210.798V219.171L353.287 219.184ZM351.459 204.537C352.081 204.537 352.483 204.654 352.691 204.887C352.898 205.12 352.989 205.691 352.989 206.585C352.989 207.48 352.898 207.985 352.717 208.192C352.535 208.4 352.107 208.503 351.433 208.503C350.759 208.503 350.357 208.4 350.163 208.218C349.969 208.024 349.878 207.635 349.878 207.052C349.878 205.976 349.969 205.289 350.163 204.991C350.357 204.693 350.785 204.55 351.459 204.55V204.537Z" fill="#69454A"/>
<path d="M372.239 219.184H372.446C372.9 219.184 373.25 219.301 373.496 219.547C373.743 219.793 373.859 220.13 373.859 220.584C373.859 221.076 373.73 221.426 373.483 221.647C373.237 221.867 372.822 221.971 372.252 221.971H371.059C370.631 221.971 370.32 221.893 370.113 221.725C369.906 221.569 369.737 221.271 369.594 220.856C368.894 221.323 368.156 221.673 367.365 221.919C366.574 222.165 365.783 222.282 364.98 222.282C363.619 222.282 362.556 221.945 361.778 221.271C361 220.597 360.611 219.677 360.611 218.497C360.611 217.227 361.117 216.242 362.115 215.542C363.113 214.842 364.526 214.492 366.341 214.492C366.743 214.492 367.17 214.518 367.637 214.557C368.091 214.596 368.609 214.66 369.167 214.764V214.518C369.167 213.753 368.985 213.183 368.622 212.781C368.259 212.379 367.715 212.185 367.002 212.185C366.444 212.185 365.731 212.392 364.863 212.807C363.994 213.222 363.359 213.429 362.957 213.429C362.556 213.429 362.244 213.312 361.998 213.079C361.752 212.846 361.635 212.535 361.635 212.159C361.635 211.472 362.141 210.927 363.139 210.538C364.137 210.137 365.498 209.942 367.222 209.942C368.946 209.942 370.307 210.292 371.085 210.979C371.863 211.666 372.252 212.846 372.252 214.492V219.184H372.239ZM369.18 216.747C368.752 216.656 368.376 216.579 368.013 216.54C367.663 216.488 367.326 216.475 367.028 216.475C366.094 216.475 365.369 216.631 364.85 216.942C364.319 217.253 364.059 217.68 364.059 218.238C364.059 218.73 364.228 219.106 364.565 219.353C364.902 219.612 365.381 219.741 366.017 219.741C366.6 219.741 367.144 219.651 367.663 219.482C368.181 219.314 368.687 219.054 369.18 218.691V216.747Z" fill="#69454A"/>
<path d="M383.62 215.075V219.171H386.602C387.172 219.171 387.587 219.275 387.82 219.482C388.067 219.69 388.183 220.04 388.183 220.532C388.183 221.025 388.067 221.388 387.82 221.608C387.574 221.828 387.172 221.932 386.602 221.932H379.524C378.941 221.932 378.526 221.828 378.28 221.608C378.033 221.388 377.917 221.025 377.917 220.532C377.917 220.04 378.033 219.69 378.28 219.482C378.526 219.275 378.941 219.171 379.537 219.171H380.509V213.014H379.965C379.381 213.014 378.98 212.911 378.733 212.69C378.487 212.47 378.37 212.12 378.37 211.614C378.37 211.109 378.487 210.759 378.72 210.551C378.954 210.344 379.369 210.24 379.952 210.24H382.648C382.881 210.24 383.05 210.292 383.18 210.383C383.309 210.474 383.374 210.616 383.374 210.785V212.664C384.294 211.679 385.15 210.966 385.954 210.551C386.757 210.124 387.613 209.916 388.533 209.916C389.363 209.916 390.037 210.098 390.517 210.474C391.009 210.85 391.256 211.355 391.256 211.99C391.256 212.483 391.087 212.885 390.75 213.196C390.413 213.507 389.972 213.675 389.441 213.675C389.065 213.675 388.611 213.533 388.093 213.26C387.574 212.988 387.211 212.846 387.017 212.846C386.615 212.846 386.135 213.027 385.591 213.39C385.046 213.753 384.398 214.31 383.646 215.075H383.62Z" fill="#69454A"/>
<path d="M399.591 213.027L401.872 218.419L404.27 213.027H404.063C403.609 213.027 403.259 212.911 403.013 212.677C402.767 212.444 402.65 212.094 402.65 211.64C402.65 211.148 402.767 210.785 403.013 210.577C403.259 210.37 403.674 210.266 404.257 210.266H407.226C407.822 210.266 408.237 210.37 408.47 210.59C408.704 210.811 408.833 211.161 408.833 211.653C408.833 212.107 408.717 212.457 408.483 212.69C408.25 212.923 407.9 213.04 407.446 213.04H407.226L402.028 224.213H402.598C403.169 224.213 403.583 224.317 403.83 224.537C404.076 224.758 404.206 225.121 404.206 225.613C404.206 226.106 404.076 226.456 403.83 226.676C403.583 226.896 403.169 227 402.598 227H397.05C396.467 227 396.052 226.896 395.806 226.676C395.559 226.456 395.443 226.106 395.443 225.6C395.443 225.095 395.559 224.745 395.806 224.524C396.052 224.304 396.467 224.2 397.05 224.2H399.007L400.2 221.66L396.363 213.027H396.156C395.702 213.027 395.352 212.911 395.106 212.677C394.859 212.444 394.743 212.094 394.743 211.64C394.743 211.148 394.859 210.785 395.106 210.577C395.352 210.37 395.767 210.266 396.35 210.266H399.565C400.148 210.266 400.563 210.37 400.809 210.59C401.056 210.811 401.172 211.161 401.172 211.653C401.172 212.107 401.056 212.457 400.809 212.69C400.563 212.923 400.226 213.04 399.772 213.04H399.552L399.591 213.027Z" fill="#69454A"/>
<path d="M434.215 172.923L421.252 193.338C378.487 167.415 311.106 193.338 311.106 193.338C311.106 193.338 243.724 167.415 200.959 193.338L187.996 172.923" stroke="#9D8663" stroke-width="3" stroke-linecap="round" stroke-linejoin="round"/>
<path d="M186.454 38.1336C176.291 38.1336 168.033 29.864 168.033 19.7149C168.033 9.5658 176.304 1.29617 186.454 1.29617H435.628C445.791 1.29617 454.048 9.5658 454.048 19.7149C454.048 29.864 445.778 38.1336 435.628 38.1336H186.454ZM439.037 17.3818C437.754 17.3818 436.704 18.4317 436.704 19.7149C436.704 20.9981 437.754 22.048 439.037 22.048C440.32 22.048 441.37 20.9981 441.37 19.7149C441.37 18.4317 440.32 17.3818 439.037 17.3818ZM183.057 17.3818C181.774 17.3818 180.724 18.4317 180.724 19.7149C180.724 20.9981 181.774 22.048 183.057 22.048C184.341 22.048 185.391 20.9981 185.391 19.7149C185.391 18.4317 184.341 17.3818 183.057 17.3818Z" fill="white"/>
<path d="M435.628 2.59236C445.091 2.59236 452.752 10.2528 452.752 19.7149C452.752 29.177 445.091 36.8374 435.628 36.8374H186.454C176.991 36.8374 169.33 29.177 169.33 19.7149C169.33 10.2528 176.991 2.59236 186.454 2.59236H435.628ZM439.037 23.3442C441.033 23.3442 442.667 21.724 442.667 19.7149C442.667 17.7058 441.046 16.0856 439.037 16.0856C437.028 16.0856 435.407 17.7058 435.407 19.7149C435.407 21.724 437.028 23.3442 439.037 23.3442ZM183.057 23.3442C185.054 23.3442 186.687 21.724 186.687 19.7149C186.687 17.7058 185.067 16.0856 183.057 16.0856C181.048 16.0856 179.428 17.7058 179.428 19.7149C179.428 21.724 181.048 23.3442 183.057 23.3442ZM435.628 0H186.454C175.578 0 166.737 8.83995 166.737 19.7149C166.737 30.5898 175.578 39.4298 186.454 39.4298H435.628C446.504 39.4298 455.344 30.5898 455.344 19.7149C455.344 8.83995 446.504 0 435.628 0ZM439.037 20.7518C438.467 20.7518 438 20.2852 438 19.7149C438 19.1446 438.467 18.678 439.037 18.678C439.607 18.678 440.074 19.1446 440.074 19.7149C440.074 20.2852 439.607 20.7518 439.037 20.7518ZM183.057 20.7518C182.487 20.7518 182.02 20.2852 182.02 19.7149C182.02 19.1446 182.487 18.678 183.057 18.678C183.628 18.678 184.094 19.1446 184.094 19.7149C184.094 20.2852 183.628 20.7518 183.057 20.7518Z" fill="#C5B8A4"/>
<path d="M210.383 14.7505C209.217 15.0098 207.739 15.2431 206.365 15.3986C205.328 15.5023 204.783 14.7505 204.783 13.9728C204.783 13.3507 205.172 12.7285 206.028 12.6507C208.335 12.4433 210.954 12.0804 213.028 11.6397C214.117 11.4323 214.869 12.2359 214.869 13.0655C214.869 13.4803 214.687 13.8951 214.298 14.2061C210.409 17.3429 209.269 20.8944 209.269 23.7979C209.269 27.0383 210.928 28.6197 213.339 28.6197C216.917 28.6197 219.276 25.9236 219.276 20.4537C219.276 17.6021 218.913 15.0875 218.265 12.91C218.239 12.7803 218.213 12.6507 218.213 12.547C218.213 11.7175 218.965 11.199 219.743 11.199C220.287 11.199 220.857 11.4582 221.143 12.0804C222.413 14.7246 224.591 17.7058 226.561 19.5464C226.976 19.9353 227.157 20.376 227.157 20.7907C227.157 21.5944 226.431 22.2943 225.654 22.2943C225.239 22.2943 224.824 22.1128 224.461 21.6462C223.139 20.013 222.18 18.5095 221.557 17.2651L221.506 17.2911C221.765 18.6391 221.894 19.9871 221.894 21.3351C221.894 27.8679 218.472 31.549 213.391 31.549C209.476 31.549 206.365 29.19 206.365 23.8497C206.365 20.9981 207.428 17.7058 210.409 14.8024L210.383 14.7505Z" fill="#69454A"/>
<path d="M240.38 10.8361C240.639 10.7842 240.898 10.7842 241.157 10.7842C242.765 10.7842 243.672 11.6915 243.672 13.0655C243.672 13.2729 243.672 13.4803 243.62 13.7136C243.283 15.606 242.791 17.5243 242.246 19.339C243.957 19.5723 245.643 20.0389 247.302 20.5833C247.561 19.3649 247.717 18.0428 247.794 16.6429C247.82 15.8393 248.52 15.4245 249.246 15.4245C250.024 15.4245 250.802 15.9171 250.75 16.8763C250.646 18.5872 250.413 20.1945 250.05 21.724C251.346 22.3202 252.617 23.0201 253.861 23.8238C254.38 24.1608 254.587 24.6533 254.587 25.12C254.587 25.9236 253.965 26.6754 253.135 26.6754C252.85 26.6754 252.539 26.5976 252.228 26.3902C251.191 25.7162 250.18 25.12 249.169 24.6015C248.183 27.2457 246.757 29.501 245.02 31.212C244.606 31.6268 244.165 31.8082 243.75 31.8082C242.946 31.8082 242.298 31.1083 242.298 30.3565C242.298 30.0195 242.428 29.6566 242.739 29.3455C244.346 27.7382 245.643 25.7421 246.498 23.3572C244.839 22.6831 243.154 22.1906 241.391 21.9054C240.872 23.2794 240.328 24.5496 239.783 25.6125C238.461 28.2308 237.113 29.0603 235.246 29.0603C233.094 29.0603 231.513 27.6605 231.513 24.9903C231.513 21.7499 234.443 19.0798 238.772 19.0798H239.369C239.887 17.4207 240.302 15.6838 240.587 14.0506C240.691 13.6358 240.535 13.558 240.094 13.6358L236.465 14.232C235.454 14.4135 234.857 13.6358 234.857 12.8581C234.857 12.2359 235.246 11.6138 236.076 11.4841L240.38 10.8361ZM237.139 24.7052C237.606 23.8238 238.046 22.7868 238.461 21.698C235.765 21.724 234.339 23.2535 234.339 24.8866C234.339 25.8199 234.754 26.2347 235.272 26.2347C236.024 26.2347 236.439 26.0014 237.139 24.7052Z" fill="#69454A"/>
<path d="M272.476 14.0247C277.117 14.0247 280.254 16.5133 280.254 20.4796C280.254 25.431 276.572 28.9048 269.443 29.9158C268.354 30.0973 267.706 29.2937 267.706 28.4641C267.706 27.8419 268.12 27.1938 269.002 27.0383C275.069 26.0014 277.194 23.9016 277.194 20.4796C277.194 18.4835 275.691 16.7726 272.476 16.7726C269.261 16.7726 265.113 17.8095 260.472 19.8575C260.213 19.9612 259.954 20.013 259.72 20.013C258.865 20.013 258.269 19.339 258.269 18.5872C258.269 18.0428 258.58 17.4725 259.331 17.1614C263.998 15.1134 268.743 14.0247 272.476 14.0247Z" fill="#69454A"/>
<path d="M286.204 22.735C286.204 17.4206 290.611 13.0525 297.028 13.0525C302.719 13.0525 306.011 16.617 306.011 21.2703C306.011 25.4958 303.509 28.5937 299.504 29.8769C299.322 29.9417 299.128 29.9677 298.972 29.9677C298.181 29.9677 297.663 29.3196 297.663 28.6326C297.663 28.1141 297.948 27.6086 298.648 27.3494C301.967 26.1569 303.289 24.1478 303.289 21.2573C303.289 18.1984 301.215 15.6838 297.663 15.4245C297.43 19.3001 296.47 22.7998 295.031 25.3403C293.748 27.6086 292.374 28.2826 290.572 28.2826C288.187 28.2826 286.204 26.3643 286.204 22.722V22.735ZM288.887 22.735C288.887 24.8866 289.73 25.6773 290.572 25.6773C291.298 25.6773 291.92 25.3014 292.607 24.1089C293.8 22.035 294.656 19.0149 294.941 15.593C291.467 16.267 288.9 19.2871 288.9 22.735H288.887Z" fill="#69454A"/>
<path d="M333.143 29.5658C333.998 29.7992 334.387 30.4213 334.387 31.0176C334.387 31.7175 333.869 32.3915 332.961 32.3915C332.806 32.3915 332.624 32.3656 332.443 32.3138C328.657 31.3027 325.313 29.6436 322.617 27.4401C319.791 29.9288 316.265 31.6916 312.583 32.573C312.454 32.5989 312.324 32.6248 312.194 32.6248C311.391 32.6248 310.872 31.9249 310.872 31.2768C310.872 30.7583 311.183 30.2399 311.857 30.0584C315.15 29.1511 318.209 27.6994 320.672 25.6255C319.609 24.5107 318.702 23.2923 317.95 21.9962C317.82 21.7628 317.743 21.5036 317.743 21.2962C317.743 20.5704 318.417 20.0519 319.117 20.0519C319.583 20.0519 320.076 20.2852 320.413 20.8296C321.035 21.8925 321.761 22.8776 322.565 23.733C323.394 22.7739 324.094 21.7369 324.665 20.5704C324.976 19.9741 325.469 19.7149 325.961 19.7149C326.661 19.7149 327.335 20.2334 327.335 20.9851C327.335 21.1925 327.283 21.3999 327.18 21.6073C326.454 23.0331 325.572 24.3552 324.535 25.5218C326.817 27.3105 329.669 28.5808 333.143 29.5658ZM321.113 10.0972C321.113 9.34544 321.813 8.98251 322.539 8.98251C323.265 8.98251 323.939 9.34544 323.939 10.0972V12.1193H333.065C333.765 12.1193 334.128 12.7155 334.128 13.3377C334.128 13.9598 333.765 14.5561 333.065 14.5561H312.246C311.546 14.5561 311.209 13.9339 311.209 13.3377C311.209 12.7414 311.546 12.1193 312.246 12.1193H321.113V10.0972ZM318.131 15.3079C318.857 15.3079 319.583 15.8523 319.583 16.5522C319.583 16.8374 319.48 17.1225 319.246 17.4077C317.924 19.0927 316.083 20.8555 314.502 21.9702C314.191 22.2035 313.854 22.2813 313.569 22.2813C312.817 22.2813 312.246 21.6592 312.246 20.9851C312.246 20.5704 312.454 20.1556 312.92 19.8186C314.372 18.8076 315.772 17.4855 317.017 15.8523C317.302 15.4634 317.717 15.3079 318.131 15.3079ZM332.157 19.0409C332.546 19.4038 332.702 19.8186 332.702 20.2074C332.702 20.9592 332.054 21.6332 331.328 21.6332C330.991 21.6332 330.628 21.4777 330.317 21.1666C329.046 19.9223 327.465 18.6779 326.013 17.6669C325.598 17.3818 325.417 16.9929 325.417 16.6041C325.417 15.956 325.961 15.3079 326.713 15.3079C326.972 15.3079 327.257 15.3856 327.543 15.5671C328.943 16.3967 330.835 17.7965 332.157 19.0409Z" fill="#69454A"/>
<path d="M344.731 14.5691C345.431 14.5691 345.794 15.1912 345.794 15.8134C345.794 16.4356 345.431 17.0577 344.731 17.0577H343.72V20.9981C344.031 20.8685 344.317 20.7648 344.602 20.6352C344.757 20.5574 344.939 20.5315 345.068 20.5315C345.768 20.5315 346.287 21.1796 346.287 21.8017C346.287 22.2165 346.08 22.6054 345.587 22.8646C344.965 23.1757 344.343 23.4608 343.72 23.7201V30.3825C343.72 32.0934 342.865 32.9489 340.998 32.9489C340.506 32.9489 339.935 32.897 339.546 32.8193C338.82 32.6897 338.509 32.1193 338.509 31.549C338.509 30.8491 339.002 30.1232 339.909 30.2528C340.117 30.3047 340.35 30.3306 340.557 30.3306C340.92 30.3306 341.05 30.201 341.05 29.8381V24.7052C340.557 24.8866 340.091 25.0163 339.65 25.1459C339.494 25.1977 339.365 25.1977 339.235 25.1977C338.457 25.1977 337.991 24.5496 337.991 23.8756C337.991 23.3572 338.276 22.8387 338.95 22.6313C339.598 22.4498 340.324 22.2165 341.05 21.9832V17.0577H339.261C338.587 17.0577 338.224 16.4356 338.224 15.8134C338.224 15.1912 338.587 14.5691 339.261 14.5691H341.05V10.0843C341.05 9.35841 341.724 8.99548 342.398 8.99548C343.072 8.99548 343.72 9.35841 343.72 10.0843V14.5691H344.731ZM354.972 26.9865C356.476 28.6715 358.654 29.7603 361.169 30.1491C361.894 30.2788 362.206 30.7972 362.206 31.3416C362.206 32.0156 361.713 32.7415 360.883 32.7415C360.754 32.7415 360.624 32.7156 360.494 32.6897C357.435 32.0156 354.92 30.5639 353.209 28.3604C351.757 30.4861 349.424 32.0156 346.546 32.897C346.365 32.9489 346.209 32.9748 346.054 32.9748C345.302 32.9748 344.835 32.3786 344.835 31.7823C344.835 31.2898 345.146 30.7713 345.872 30.538C348.413 29.7084 350.176 28.5937 351.213 26.9865H346.391C345.743 26.9865 345.406 26.3902 345.406 25.8199C345.406 25.2496 345.743 24.6533 346.391 24.6533H352.146C352.224 24.2645 352.276 23.8497 352.302 23.4349C352.354 22.735 352.95 22.398 353.546 22.398C354.22 22.398 354.894 22.8128 354.843 23.5645C354.817 23.9275 354.765 24.2904 354.713 24.6533H361.039C361.713 24.6533 362.05 25.2496 362.05 25.8199C362.05 26.3902 361.713 26.9865 361.039 26.9865H354.972ZM347.22 16.6429C346.52 16.6429 345.95 16.0985 345.95 15.4505C345.95 15.1135 346.106 14.7505 346.494 14.4394C347.894 13.247 349.268 11.4323 350.098 9.77319C350.357 9.2288 350.85 8.99548 351.343 8.99548C352.017 8.99548 352.691 9.46211 352.691 10.162C352.691 10.3694 352.639 10.5768 352.535 10.7842C352.431 10.9916 352.328 11.199 352.198 11.4064H354.298C355.646 11.4064 356.424 12.0804 356.424 13.0396C356.424 13.4025 356.32 13.8173 356.061 14.258C355.802 14.7246 355.517 15.1912 355.206 15.6319H357.746C359.639 15.6319 360.443 16.3837 360.443 18.1206V22.9424C360.443 23.6164 359.846 23.9534 359.224 23.9534C358.602 23.9534 358.006 23.6164 358.006 22.9424V21.2314C357.669 21.698 357.072 21.8536 356.087 21.8536C354.583 21.8536 354.117 21.4907 354.117 20.35V17.7058H353.157C353.08 19.7797 352.535 21.0759 351.369 22.1128C351.109 22.3461 350.824 22.4498 350.591 22.4498C350.072 22.4498 349.657 22.0091 349.657 21.5166C349.657 21.2573 349.761 20.9722 350.046 20.7129C350.824 20.0389 351.187 19.2612 351.265 17.7058H350.072C349.58 17.7058 349.424 17.8614 349.424 18.3539V23.0979C349.424 23.7719 348.828 24.1089 348.206 24.1089C347.583 24.1089 346.987 23.7719 346.987 23.0979V18.1206C346.987 17.6021 347.065 17.1096 347.298 16.6429H347.22ZM350.694 13.6358C350.098 14.3876 349.45 15.0616 348.776 15.7097C349.087 15.6578 349.424 15.6319 349.787 15.6319H352.328C352.691 15.1135 353.054 14.5691 353.365 13.9987C353.417 13.921 353.443 13.8432 353.443 13.7913C353.443 13.6877 353.339 13.6358 353.106 13.6358H350.694ZM355.983 19.9352C355.983 20.1426 356.061 20.1945 356.32 20.1945C356.657 20.1945 356.813 20.0649 356.865 19.6242C356.917 19.1575 357.28 18.9501 357.643 18.9501C357.772 18.9501 357.902 18.9761 358.006 19.0279V18.3539C358.006 17.8614 357.85 17.7058 357.357 17.7058H355.983V19.9352Z" fill="#69454A"/>
<path d="M373.198 31.6657C370.813 31.6657 369.75 30.4473 369.75 28.3474V14.4524C369.75 12.3785 370.813 11.1601 373.198 11.1601H382.013C384.398 11.1601 385.461 12.3785 385.461 14.4524V28.3474C385.409 30.6287 384.269 31.6138 382.013 31.6657H373.198ZM382.609 15.0746C382.609 14.0895 382.246 13.8043 381.132 13.8043H374.08C372.965 13.8043 372.602 14.0895 372.602 15.0746V19.7667H382.609V15.0746ZM381.132 29.0215C382.246 29.0215 382.609 28.7363 382.609 27.7512V22.4109H372.602V27.7512C372.628 28.8141 373.094 28.9955 374.08 29.0215H381.132Z" fill="#69454A"/>
<path d="M394.12 16.4096C393.446 16.4096 393.083 15.7616 393.083 15.1135C393.083 14.4654 393.446 13.8173 394.12 13.8173H403.687C404.387 13.8173 404.75 14.4654 404.75 15.1135C404.75 15.7616 404.387 16.4096 403.687 16.4096H394.12ZM397.569 32.3008C395.469 32.3008 394.794 31.4972 394.794 29.8381V27.4531C394.794 25.794 395.469 24.9904 397.569 24.9904H400.55C402.624 24.9904 403.298 25.794 403.298 27.4531V29.8381C403.272 31.7564 402.365 32.2749 400.55 32.3008H397.569ZM395.909 12.573C395.261 12.573 394.924 11.9508 394.924 11.3545C394.924 10.7583 395.261 10.1361 395.909 10.1361H401.898C402.572 10.1361 402.909 10.7324 402.909 11.3545C402.909 11.9767 402.572 12.573 401.898 12.573H395.909ZM395.909 20.0908C395.261 20.0908 394.924 19.4686 394.924 18.8724C394.924 18.2761 395.261 17.654 395.909 17.654H401.898C402.572 17.654 402.909 18.2502 402.909 18.8724C402.909 19.4946 402.572 20.0908 401.898 20.0908H395.909ZM395.909 23.772C395.261 23.772 394.924 23.1498 394.924 22.5535C394.924 21.9573 395.261 21.3351 395.909 21.3351H401.898C402.572 21.3351 402.909 21.9314 402.909 22.5535C402.909 23.1757 402.572 23.772 401.898 23.772H395.909ZM399.954 29.9677C400.55 29.9677 400.68 29.8122 400.68 29.3196V27.9716C400.68 27.479 400.55 27.3235 399.954 27.3235H398.139C397.569 27.3235 397.439 27.479 397.439 27.9716V29.3196C397.439 29.8381 397.62 29.9677 398.139 29.9677H399.954ZM409.598 20.3241C408.898 20.3241 408.639 20.5315 408.639 21.2314V28.6456C408.639 29.3715 409.002 29.527 411.231 29.527C413.824 29.527 414.317 29.0344 414.472 27.2976C414.55 26.4939 415.172 26.131 415.82 26.131C416.572 26.131 417.35 26.6235 417.272 27.479C416.987 31.1602 415.872 32.1194 410.791 32.1194C406.694 32.1194 405.813 31.2898 405.813 28.9826V20.6093C405.813 18.6909 406.798 17.7836 409.054 17.7836H411.932C412.657 17.7836 412.839 17.6281 412.839 16.954V13.6877C412.839 13.0655 412.683 12.91 411.932 12.91H406.539C405.839 12.91 405.476 12.2619 405.476 11.6138C405.476 10.9657 405.839 10.3176 406.539 10.3176H412.58C414.809 10.3176 415.665 11.3286 415.665 13.1174V17.6799C415.665 19.5464 414.809 20.3241 412.58 20.3241H409.598Z" fill="#69454A"/>
<g filter="url(#filter0_d_60_339)">
<path d="M129.157 73.0138C129.157 70.3566 131.543 68.9827 133.915 68.9827C136.287 68.9827 138.672 70.3566 138.672 73.0138V84.1869H148.291C150.767 84.1869 152.05 86.3774 152.05 88.5809C152.05 90.7844 150.767 92.975 148.291 92.975H136.119V101.763H140.513C147.565 101.763 150.404 104.511 150.404 111.005C150.404 122.904 149.859 133.61 148.667 141.763C147.565 149.268 143.728 151.925 138.594 151.925C136.948 151.925 135.483 151.744 133.928 151.472C131.089 151.018 129.806 148.814 129.806 146.533C129.806 143.785 131.724 141.037 135.03 141.685C135.756 141.776 136.494 141.867 137.22 141.867C138.231 141.867 138.776 141.413 138.957 140.039C140.15 132.716 140.876 122.826 140.876 112.21C140.876 110.564 140.422 110.02 138.776 110.02H135.846C134.744 125.392 131.089 138.938 125.956 148.102C124.854 150.201 123.026 151.031 121.289 151.031C118.904 151.031 116.622 149.294 116.622 146.637C116.622 145.807 116.894 144.809 117.452 143.798C123.13 133.636 126.604 118.536 126.604 101.141V93.0009H120.654C118.269 93.0009 116.998 90.7974 116.998 88.6069C116.998 86.4163 118.281 84.2128 120.654 84.2128H129.17V73.0397L129.157 73.0138ZM167.696 108.257C166.867 109.812 165.959 111.368 164.948 112.832C163.756 114.66 162.2 115.399 160.735 115.399C158.441 115.399 156.431 113.662 156.431 111.459C156.431 110.629 156.704 109.722 157.352 108.892C160.191 104.679 162.757 99.5596 164.494 94.6989C165.22 92.5991 166.97 91.6788 168.707 91.6788C170.898 91.6788 173.011 93.1435 173.011 95.4377C173.011 95.8914 172.92 96.4487 172.739 96.9931C172.467 97.9134 172.013 99.0022 171.637 100.013H194.154C196.539 100.013 197.628 102.022 197.628 104.135C197.628 106.248 196.526 108.257 194.154 108.257H182.707V109.903C182.617 112.379 182.617 114.751 182.344 117.227H198.548C200.933 117.227 202.022 119.236 202.022 121.348C202.022 123.461 200.92 125.47 198.548 125.47H183.719C187.102 133.247 193.052 138.925 199.378 142.774C201.569 144.057 202.489 145.794 202.489 147.35C202.489 149.735 200.48 151.744 197.913 151.744C196.993 151.744 195.994 151.472 194.893 150.823C188.113 146.611 182.254 140.299 178.326 132.34C174.204 141.128 167.346 147.531 158.091 152.016C157.17 152.47 156.263 152.651 155.524 152.651C152.867 152.651 150.948 150.551 150.948 148.257C150.948 146.611 151.959 144.783 154.241 143.682C162.485 139.469 168.059 134.44 171.08 125.47H157.533C155.239 125.47 154.15 123.37 154.15 121.348C154.15 119.326 155.252 117.227 157.533 117.227H172.817C173.18 114.66 173.18 112.197 173.27 109.631V108.257H167.683H167.696ZM197.628 80.6094C200.104 80.6094 201.387 82.8129 201.387 85.0035C201.387 87.194 200.104 89.3975 197.628 89.3975H164.948C163.574 91.7825 162.109 94.1545 160.463 96.358C159.361 97.9134 157.806 98.5615 156.341 98.5615C153.956 98.5615 151.674 96.7339 151.674 94.2582C151.674 93.2472 152.037 92.1584 152.957 90.9659C156.522 86.2089 160.281 78.6133 162.2 72.1972C162.926 69.9937 164.767 69.0864 166.685 69.0864C169.161 69.0864 171.806 70.7325 171.806 73.3897C171.806 73.7526 171.715 74.31 171.533 74.7637C170.989 76.682 170.25 78.6133 169.33 80.6224H197.615L197.628 80.6094Z" stroke="white" stroke-width="12"/>
<path d="M328.618 106.702C321.022 112.742 313.05 117.965 305.454 122.074C304.352 122.709 303.263 122.904 302.252 122.904C299.322 122.904 297.222 120.428 297.222 117.771C297.222 115.943 298.233 113.921 300.696 112.651C317.263 103.954 334.011 89.8641 345.185 75.1266C346.468 73.4804 348.115 72.7416 349.761 72.7416C352.6 72.7416 355.348 74.9322 355.348 77.8615C355.348 78.8725 354.985 80.065 354.065 81.2446C348.659 88.2958 341.983 95.2433 334.659 101.659C337.135 101.841 339.417 103.487 339.417 106.416V146.598C339.417 149.8 336.759 151.355 334.011 151.355C331.263 151.355 328.606 149.8 328.606 146.598V106.689L328.618 106.702Z" stroke="white" stroke-width="12"/>
<path d="M431.972 79.1448C440.022 79.054 443.963 82.6185 443.963 87.4792C443.963 89.579 443.133 91.964 441.578 94.4397C437.819 100.208 432.789 105.794 427.02 110.37C425.737 111.381 424.363 111.834 423.17 111.834C420.422 111.834 418.231 109.54 418.231 106.805C418.231 105.25 418.957 103.604 420.798 102.139C424.557 99.2096 428.122 95.36 430.417 91.9769C430.87 91.3418 431.052 90.7845 431.052 90.3308C431.052 89.592 430.417 89.229 428.952 89.229L376.957 89.592C373.756 89.592 372.109 87.1163 372.109 84.5628C372.109 82.0093 373.756 79.5336 376.957 79.5336L431.972 79.1707V79.1448ZM401.587 100.571C401.587 97.5505 404.244 95.9951 406.902 95.9951C409.559 95.9951 412.217 97.5505 412.217 100.571V104.874C412.217 124.368 403.609 138.834 388.054 148.257C386.861 148.996 385.669 149.359 384.58 149.359C381.559 149.359 379.265 146.974 379.265 144.239C379.265 142.502 380.276 140.674 382.648 139.21C395.183 131.614 401.6 120.908 401.6 104.887V100.584L401.587 100.571Z" stroke="white" stroke-width="12"/>
<path d="M129.157 73.0138C129.157 70.3566 131.543 68.9827 133.915 68.9827C136.287 68.9827 138.672 70.3566 138.672 73.0138V84.1869H148.291C150.767 84.1869 152.05 86.3774 152.05 88.5809C152.05 90.7844 150.767 92.975 148.291 92.975H136.119V101.763H140.513C147.565 101.763 150.404 104.511 150.404 111.005C150.404 122.904 149.859 133.61 148.667 141.763C147.565 149.268 143.728 151.925 138.594 151.925C136.948 151.925 135.483 151.744 133.928 151.472C131.089 151.018 129.806 148.814 129.806 146.533C129.806 143.785 131.724 141.037 135.03 141.685C135.756 141.776 136.494 141.867 137.22 141.867C138.231 141.867 138.776 141.413 138.957 140.039C140.15 132.716 140.876 122.826 140.876 112.21C140.876 110.564 140.422 110.02 138.776 110.02H135.846C134.744 125.392 131.089 138.938 125.956 148.102C124.854 150.201 123.026 151.031 121.289 151.031C118.904 151.031 116.622 149.294 116.622 146.637C116.622 145.807 116.894 144.809 117.452 143.798C123.13 133.636 126.604 118.536 126.604 101.141V93.0009H120.654C118.269 93.0009 116.998 90.7974 116.998 88.6069C116.998 86.4163 118.281 84.2128 120.654 84.2128H129.17V73.0397L129.157 73.0138ZM167.696 108.257C166.867 109.812 165.959 111.368 164.948 112.832C163.756 114.66 162.2 115.399 160.735 115.399C158.441 115.399 156.431 113.662 156.431 111.459C156.431 110.629 156.704 109.722 157.352 108.892C160.191 104.679 162.757 99.5596 164.494 94.6989C165.22 92.5991 166.97 91.6788 168.707 91.6788C170.898 91.6788 173.011 93.1435 173.011 95.4377C173.011 95.8914 172.92 96.4487 172.739 96.9931C172.467 97.9134 172.013 99.0022 171.637 100.013H194.154C196.539 100.013 197.628 102.022 197.628 104.135C197.628 106.248 196.526 108.257 194.154 108.257H182.707V109.903C182.617 112.379 182.617 114.751 182.344 117.227H198.548C200.933 117.227 202.022 119.236 202.022 121.348C202.022 123.461 200.92 125.47 198.548 125.47H183.719C187.102 133.247 193.052 138.925 199.378 142.774C201.569 144.057 202.489 145.794 202.489 147.35C202.489 149.735 200.48 151.744 197.913 151.744C196.993 151.744 195.994 151.472 194.893 150.823C188.113 146.611 182.254 140.299 178.326 132.34C174.204 141.128 167.346 147.531 158.091 152.016C157.17 152.47 156.263 152.651 155.524 152.651C152.867 152.651 150.948 150.551 150.948 148.257C150.948 146.611 151.959 144.783 154.241 143.682C162.485 139.469 168.059 134.44 171.08 125.47H157.533C155.239 125.47 154.15 123.37 154.15 121.348C154.15 119.326 155.252 117.227 157.533 117.227H172.817C173.18 114.66 173.18 112.197 173.27 109.631V108.257H167.683H167.696ZM197.628 80.6094C200.104 80.6094 201.387 82.8129 201.387 85.0035C201.387 87.194 200.104 89.3975 197.628 89.3975H164.948C163.574 91.7825 162.109 94.1545 160.463 96.358C159.361 97.9134 157.806 98.5615 156.341 98.5615C153.956 98.5615 151.674 96.7339 151.674 94.2582C151.674 93.2472 152.037 92.1584 152.957 90.9659C156.522 86.2089 160.281 78.6133 162.2 72.1972C162.926 69.9937 164.767 69.0864 166.685 69.0864C169.161 69.0864 171.806 70.7325 171.806 73.3897C171.806 73.7526 171.715 74.31 171.533 74.7637C170.989 76.682 170.25 78.6133 169.33 80.6224H197.615L197.628 80.6094Z" fill="#84584A" stroke="#84584A" stroke-width="2" stroke-linecap="round" stroke-linejoin="round"/>
<path d="M328.618 106.702C321.022 112.742 313.05 117.965 305.454 122.074C304.352 122.709 303.263 122.904 302.252 122.904C299.322 122.904 297.222 120.428 297.222 117.771C297.222 115.943 298.233 113.921 300.696 112.651C317.263 103.954 334.011 89.8641 345.185 75.1266C346.468 73.4804 348.115 72.7416 349.761 72.7416C352.6 72.7416 355.348 74.9322 355.348 77.8615C355.348 78.8725 354.985 80.065 354.065 81.2446C348.659 88.2958 341.983 95.2433 334.659 101.659C337.135 101.841 339.417 103.487 339.417 106.416V146.598C339.417 149.8 336.759 151.355 334.011 151.355C331.263 151.355 328.606 149.8 328.606 146.598V106.689L328.618 106.702Z" fill="#84584A" stroke="#84584A" stroke-width="2" stroke-linecap="round" stroke-linejoin="round"/>
<path d="M431.972 79.1448C440.022 79.054 443.963 82.6185 443.963 87.4792C443.963 89.579 443.133 91.964 441.578 94.4397C437.819 100.208 432.789 105.794 427.02 110.37C425.737 111.381 424.363 111.834 423.17 111.834C420.422 111.834 418.231 109.54 418.231 106.805C418.231 105.25 418.957 103.604 420.798 102.139C424.557 99.2096 428.122 95.36 430.417 91.9769C430.87 91.3418 431.052 90.7845 431.052 90.3308C431.052 89.592 430.417 89.229 428.952 89.229L376.957 89.592C373.756 89.592 372.109 87.1163 372.109 84.5628C372.109 82.0093 373.756 79.5336 376.957 79.5336L431.972 79.1707V79.1448ZM401.587 100.571C401.587 97.5505 404.244 95.9951 406.902 95.9951C409.559 95.9951 412.217 97.5505 412.217 100.571V104.874C412.217 124.368 403.609 138.834 388.054 148.257C386.861 148.996 385.669 149.359 384.58 149.359C381.559 149.359 379.265 146.974 379.265 144.239C379.265 142.502 380.276 140.674 382.648 139.21C395.183 131.614 401.6 120.908 401.6 104.887V100.584L401.587 100.571Z" fill="#69454A" stroke="#69454A" stroke-width="2" stroke-linecap="round" stroke-linejoin="round"/>
<path d="M468.126 122.761C463.265 122.761 458.093 119.508 458.093 113.468V80.3372C458.093 74.2452 463.265 70.9529 468.126 70.9529C472.987 70.9529 478.159 74.2452 478.159 80.3372V113.468C478.159 119.508 472.987 122.761 468.126 122.761Z" fill="#84584A"/>
<path d="M468.126 74.1933C471.496 74.1933 474.919 76.3061 474.919 80.3372V113.468C474.919 117.447 471.509 119.521 468.126 119.521C464.743 119.521 461.333 117.434 461.333 113.468V80.3372C461.333 76.3061 464.743 74.1933 468.126 74.1933ZM468.126 67.7124C460.556 67.7124 454.852 73.1434 454.852 80.3372V113.468C454.852 120.61 460.556 126.002 468.126 126.002C475.696 126.002 481.4 120.61 481.4 113.468V80.3372C481.4 73.1434 475.696 67.7124 468.126 67.7124Z" fill="white"/>
<path d="M476.617 157.266C469.137 157.266 462.72 153.597 459.843 147.7C455.163 138.069 461.606 128.84 469.565 124.343C475.631 120.908 483.863 117.512 492.898 114.66C493.144 112.029 493.248 108.97 493.248 105.237V78.7818C493.248 73.5323 497.604 69.5789 503.372 69.5789C509.141 69.5789 513.315 73.5323 513.315 78.7818V105.963C513.315 107.168 513.289 108.361 513.25 109.54C519.809 108.27 526.407 107.363 532.915 106.818C539.5 106.261 546.617 105.989 554.057 105.989C576.004 105.989 594.204 108.425 594.968 108.529C600.283 109.255 604.017 114.168 603.291 119.469C602.643 124.265 598.507 127.881 593.672 127.881C593.231 127.881 592.778 127.855 592.337 127.79C591.624 127.7 574.344 125.431 553.824 125.431C546.98 125.431 540.485 125.691 534.535 126.183C526.317 126.87 517.956 128.231 509.646 130.214C507.093 137.253 503.152 142.995 497.656 147.713C494.441 151.031 490.902 153.494 487.156 155.036C483.578 156.514 480.026 157.253 476.604 157.253L476.617 157.266Z" fill="#84584A"/>
<path d="M503.372 72.8194C506.704 72.8194 510.074 74.8674 510.074 78.7818V105.963C510.074 108.62 509.97 111.134 509.776 113.558C517.048 111.99 524.917 110.733 533.187 110.046C540.265 109.449 547.343 109.216 554.057 109.216C575.744 109.216 593.569 111.601 594.541 111.731C598.093 112.21 600.569 115.477 600.089 119.028C599.648 122.282 596.874 124.641 593.685 124.641C593.387 124.641 593.089 124.615 592.791 124.576C592.557 124.55 574.915 122.191 553.837 122.191C547.498 122.191 540.861 122.398 534.276 122.956C524.735 123.759 515.518 125.405 507.17 127.479C504.824 134.79 500.974 140.636 495.452 145.341C492.756 148.153 489.606 150.525 485.937 152.042C482.606 153.416 479.468 154.012 476.63 154.012C469.967 154.012 464.937 150.707 462.772 146.274C460.05 140.661 461.58 132.573 471.172 127.155C476.837 123.954 485.38 120.298 495.906 117.123C496.359 113.61 496.515 109.683 496.515 105.237V78.7818C496.515 74.8674 499.976 72.8194 503.398 72.8194M476.5 141.335C477.2 141.335 478.198 141.037 479.443 140.571C482.45 138.951 484.926 137.253 486.987 135.438C487.583 134.764 488.141 134.051 488.685 133.286C480.428 134.816 474.97 138.782 475.398 140.584C475.515 141.102 475.904 141.335 476.513 141.335M503.411 66.3385C495.789 66.3385 490.046 71.6917 490.046 78.7818V105.237C490.046 107.907 489.981 110.201 489.865 112.236C481.439 115.01 473.791 118.238 468.009 121.517C462.241 124.783 458.183 129.242 456.291 134.427C454.502 139.326 454.748 144.537 456.965 149.113C460.387 156.138 467.931 160.506 476.656 160.506C480.506 160.506 484.472 159.676 488.439 158.043C492.561 156.345 496.424 153.662 499.924 150.085C505.368 145.393 509.374 139.767 512.096 132.988C519.693 131.251 527.328 130.059 534.846 129.424C540.706 128.931 547.109 128.685 553.863 128.685C574.189 128.685 591.248 130.914 591.961 131.018C592.518 131.096 593.115 131.135 593.711 131.135C600.154 131.135 605.663 126.313 606.544 119.923C607.504 112.845 602.526 106.3 595.448 105.328C594.67 105.224 576.263 102.748 554.096 102.748C546.565 102.748 539.357 103.033 532.681 103.591C527.354 104.044 521.974 104.731 516.594 105.652V78.7818C516.594 71.6917 510.93 66.3385 503.411 66.3385Z" fill="white"/>
<path d="M254.963 106.053C256.695 106.053 258.1 104.777 258.1 103.202C258.1 101.627 256.695 100.35 254.963 100.35C253.23 100.35 251.826 101.627 251.826 103.202C251.826 104.777 253.23 106.053 254.963 106.053Z" fill="white"/>
<path d="M284.117 88.9568C285.548 88.9568 286.709 87.7962 286.709 86.3645C286.709 84.9327 285.548 83.7721 284.117 83.7721C282.685 83.7721 281.524 84.9327 281.524 86.3645C281.524 87.7962 282.685 88.9568 284.117 88.9568Z" fill="white"/>
<path d="M30.5092 98.9633C25.7907 98.9633 22.2389 95.9562 22.2389 91.964V85.7423C22.2389 73.7138 33.2185 73.7138 36.8352 73.7138H53.6092C53.5574 73.3119 53.5315 72.9101 53.5315 72.5083C53.5315 70.8492 53.9592 69.2419 54.7759 67.8032C54.6981 65.3275 55.0222 63.0073 56.8889 61.8537C57.4852 61.4778 58.1981 61.2834 58.937 61.2834C59.987 61.2834 61.1018 61.6722 62.5148 62.5407C63.15 62.437 63.7852 62.3851 64.4333 62.3851C65.0815 62.3851 65.7685 62.437 66.4166 62.5536C67.8296 61.6722 68.9574 61.2834 70.0203 61.2834C70.7592 61.2834 71.4592 61.4778 72.0685 61.8537C73.9611 63.0332 74.2722 65.4182 74.1685 67.9717C74.9333 69.3716 75.3222 70.927 75.3222 72.5083C75.3222 72.9101 75.2963 73.3119 75.2444 73.7138H92.1222C95.7259 73.7138 106.718 73.7138 106.718 85.7423V91.601C106.718 95.7099 103.244 98.6911 98.4481 98.6911C93.6518 98.6911 90.1778 95.6451 90.1778 91.601V88.0625H38.7926V91.964C38.7926 96.021 35.3055 98.9633 30.5222 98.9633H30.5092Z" fill="#69454A"/>
<path d="M70.0204 64.5238C70.15 64.5238 70.2537 64.5498 70.3444 64.6016C71.0574 65.0423 70.9667 67.5569 70.8759 68.8012C71.6407 69.8771 72.0815 71.1473 72.0815 72.5083C72.0815 74.2063 71.4074 75.7488 70.2796 76.9542H92.1222C100.548 76.9542 103.478 79.7928 103.478 85.7423V91.601C103.478 94.1675 101.002 95.4507 98.4481 95.4507C95.8944 95.4507 93.4185 94.1675 93.4185 91.601V87.2977C93.4185 85.5608 92.6926 84.822 90.3981 84.822H38.5722C36.2778 84.822 35.5518 85.5479 35.5518 87.2977V91.964C35.5518 94.4397 33.0759 95.7229 30.5222 95.7229C27.9685 95.7229 25.4926 94.4397 25.4926 91.964V85.7423C25.4926 79.7928 28.4222 76.9542 36.8481 76.9542H58.6C57.4722 75.7488 56.7981 74.2063 56.7981 72.5083C56.7981 71.0955 57.2778 69.7734 58.0944 68.6716C58.0037 67.3884 57.9518 65.0164 58.6259 64.5887C58.7167 64.5368 58.8204 64.5109 58.95 64.5109C59.6759 64.5109 60.9722 65.3404 61.8926 66.0015C62.6963 65.7423 63.5519 65.5997 64.4463 65.5997C65.3407 65.5997 66.2481 65.7552 67.0648 66.0274C67.9981 65.3534 69.2944 64.5109 70.0333 64.5109M70.0333 58.03C68.6463 58.03 67.2981 58.3929 65.7685 59.1836C65.3278 59.1447 64.887 59.1188 64.4463 59.1188C64.0315 59.1188 63.6167 59.1317 63.2018 59.1706C61.6852 58.38 60.337 58.017 58.95 58.017C57.563 58.017 56.3056 58.38 55.1907 59.0799C52.1056 61.0112 51.5611 64.485 51.5352 67.0255C51.0167 68.1143 50.6667 69.2679 50.4722 70.4474H36.8481C22.1093 70.4474 19.0111 78.7559 19.0111 85.7164V91.938C19.0111 97.7709 23.963 102.178 30.5222 102.178C37.0815 102.178 42.0333 97.7838 42.0333 91.938V91.277H86.9241V91.5751C86.9241 97.4598 91.8759 101.906 98.4352 101.906C104.994 101.906 109.946 97.4727 109.946 91.5751V85.7164C109.946 78.7559 106.848 70.4474 92.1093 70.4474H78.3815C78.2 69.3456 77.8759 68.2698 77.4093 67.2329C77.4093 64.6405 76.9167 61.0371 73.7537 59.0669C72.6389 58.367 71.3426 58.0041 69.9944 58.0041L70.0333 58.03Z" fill="white"/>
<path d="M62.1907 156.903C59.3518 156.903 57.5111 156.721 54.8796 156.203C51.0037 155.399 48.5148 152.431 48.5148 148.633C48.5148 147.324 48.8518 145.989 49.487 144.809C43.0963 147.933 36.4852 150.538 30.0944 152.379C29.2518 152.651 28.3833 152.794 27.5796 152.794C22.913 152.794 20.1259 148.957 20.1259 145.25C20.1259 141.841 22.3037 139.002 25.6611 138.017C26.6333 137.732 27.5926 137.447 28.5518 137.136C24.4296 137.071 21.2148 133.779 21.2148 129.592C21.2148 126.365 23.25 123.681 26.5426 122.58C27.2815 122.359 28.0204 122.139 28.7722 121.906C24.8444 121.569 21.863 118.471 21.863 114.582C21.863 111.264 24.0407 108.529 27.5407 107.453C32.3111 106.118 36.8092 104.537 40.9315 102.774C37.4185 102.411 34.8648 99.4559 34.8648 95.6322C34.8648 91.5362 37.7944 88.4513 41.6704 88.4513H87.0796C91.0722 88.4513 94.0796 91.5362 94.0796 95.6322C94.0796 99.7281 91.0722 102.813 87.0796 102.813H82.1018C82.7241 104.459 83.3981 106.04 84.0981 107.531C86.9241 105.6 89.4648 103.63 91.7722 101.556C93.2629 100.208 95.2074 99.4429 97.2296 99.4429C101.494 99.4429 105.228 103.059 105.228 107.168C105.228 109.436 104.087 111.601 102 113.273C98.4092 116.06 95.0518 118.406 91.837 120.415C95.7129 125.574 100.263 130.085 105.37 133.857C107.781 135.632 109.168 138.186 109.168 140.856C109.168 145.198 105.461 148.853 101.08 148.853C99.0315 148.853 96.9703 148.076 95.1166 146.585C92.2648 144.265 89.2703 141.711 86.5481 138.588C83.4629 135.205 80.6241 131.536 78.0704 127.635C78.4852 129.981 78.6926 132.379 78.6926 134.816C78.6926 156.916 66.2611 156.916 62.1778 156.916L62.1907 156.903ZM56.9278 140.856C57.1481 140.882 57.3815 140.908 57.6018 140.947C59.0796 141.206 60.5315 141.348 61.8407 141.361C62.0352 141.011 62.45 139.987 62.6185 137.395C60.7648 138.588 58.8592 139.741 56.9278 140.856ZM65.8333 104.744C66.5852 105.496 67.2981 106.261 67.9722 107.039C67.6092 106.002 67.2592 104.952 66.9352 103.889C66.5592 104.187 66.1833 104.472 65.8333 104.744Z" fill="#69454A"/>
<path d="M87.0926 91.6918C89.5685 91.6918 90.8518 93.6101 90.8518 95.6322C90.8518 97.6542 89.5685 99.5726 87.0926 99.5726H77.5778C78.9518 103.967 80.6889 108.27 82.8926 112.21C86.8333 109.735 90.4889 107.09 93.9629 103.967C94.9741 103.046 96.1537 102.683 97.2555 102.683C99.7315 102.683 102.013 104.783 102.013 107.168C102.013 108.361 101.378 109.644 100.004 110.733C95.9722 113.843 91.6685 116.864 87.1833 119.43C91.7592 126.209 97.2555 131.873 103.478 136.449C105.215 137.732 105.954 139.378 105.954 140.843C105.954 143.319 103.854 145.6 101.106 145.6C99.9129 145.6 98.5389 145.146 97.1648 144.044C94.2352 141.66 91.487 139.288 89.0241 136.449C79.5092 126.015 72.7296 113.105 69.0611 99.5596H67.1426C65.0426 101.296 62.9296 102.943 60.7389 104.407C70.8111 113.105 75.4778 123.811 75.4778 134.79C75.4778 148.983 70.7204 153.649 62.2037 153.649C59.4555 153.649 57.8092 153.468 55.5278 153.014C52.8704 152.47 51.7685 150.538 51.7685 148.62C51.7685 146.378 53.4278 144.057 56.2018 144.057C56.487 144.057 56.7852 144.083 57.0833 144.135C58.6389 144.407 60.3759 144.589 62.0222 144.589C64.2129 144.589 65.9629 142.761 65.9629 134.699C65.9629 133.507 65.8722 132.405 65.7815 131.316C55.1648 139.002 41.8907 145.6 29.1611 149.255C28.6167 149.437 28.0592 149.527 27.6055 149.527C24.9481 149.527 23.3926 147.324 23.3926 145.224C23.3926 143.487 24.4037 141.75 26.5944 141.102C40.1407 137.162 52.8704 130.94 63.5778 122.619C63.0333 121.245 62.2944 119.961 61.5685 118.588C52.1444 124.991 40.9704 130.214 30.2629 133.597C29.7185 133.779 29.1611 133.869 28.7074 133.869C26.1407 133.869 24.4944 131.77 24.4944 129.566C24.4944 128.011 25.4148 126.365 27.6055 125.626C37.4055 122.787 48.1129 118.03 56.8111 112.171C55.8 111.07 54.7111 109.981 53.6092 108.97C46.4667 113.001 38.8704 116.112 31.2741 118.393C30.6389 118.575 30.0815 118.665 29.537 118.665C26.7889 118.665 25.1426 116.656 25.1426 114.543C25.1426 112.897 26.1537 111.251 28.5259 110.512C37.6778 107.946 46.6481 104.291 53.9722 99.5337H41.7092C39.3241 99.5337 38.1444 97.5246 38.1444 95.5933C38.1444 93.662 39.337 91.6529 41.7092 91.6529H87.1185M87.1185 85.172H41.6833C35.9537 85.172 31.637 89.6568 31.637 95.5933C31.637 98.056 32.4278 100.298 33.75 102.061C31.4944 102.852 29.1611 103.591 26.75 104.265C26.6981 104.278 26.6463 104.291 26.5944 104.317C21.7592 105.807 18.6352 109.812 18.6352 114.543C18.6352 117.369 19.7111 119.897 21.5 121.789C19.2963 123.759 18 126.52 18 129.566C18 132.392 19.0889 134.971 20.8518 136.89C18.3759 138.873 16.8981 141.841 16.8981 145.211C16.8981 151.264 21.5907 155.995 27.5926 155.995C28.7074 155.995 29.9 155.801 31.0407 155.438C35.7592 154.077 40.6074 152.314 45.3907 150.227C46.0389 154.777 49.4222 158.341 54.1926 159.339C57.0704 159.91 59.1444 160.117 62.1907 160.117C74.4148 160.117 81.013 152.716 81.8555 138.082C82.6074 138.989 83.3852 139.871 84.1759 140.739C87.0407 144.019 90.1518 146.676 93.0685 149.048C95.5444 151.031 98.3055 152.055 101.093 152.055C107.341 152.055 112.422 147.013 112.422 140.817C112.422 137.097 110.556 133.597 107.315 131.199C103.374 128.296 99.7833 124.939 96.6074 121.154C98.9667 119.56 101.404 117.797 103.957 115.827C103.983 115.801 104.009 115.788 104.048 115.762C106.913 113.468 108.494 110.409 108.494 107.129C108.494 101.206 103.374 96.2025 97.3074 96.1636C97.3074 95.9821 97.3204 95.7877 97.3204 95.5933C97.3204 89.6568 92.9259 85.172 87.0796 85.172H87.1185Z" fill="white"/>
<path d="M30.5093 96.371C27.6833 96.371 24.8315 94.8545 24.8315 91.964V85.7423C24.8315 79.1318 28.4222 76.3061 36.8352 76.3061H57.2648C56.5259 75.1655 56.137 73.8563 56.137 72.5083C56.137 71.0696 56.5778 69.6827 57.4204 68.4902C57.2 64.7183 57.9778 64.2387 58.2759 64.0572C58.4704 63.9406 58.6907 63.8758 58.95 63.8758C59.2093 63.8758 59.9741 63.8758 62.0093 65.3145C62.8 65.0942 63.6167 64.9775 64.4463 64.9775C65.2759 64.9775 66.1315 65.0942 66.9481 65.3275C69.0093 63.8758 69.7741 63.8758 70.0333 63.8758C70.2926 63.8758 70.513 63.9406 70.7074 64.0572C71.0056 64.2517 71.8093 64.7442 71.55 68.6327C72.3278 69.8123 72.7426 71.1473 72.7426 72.5213C72.7426 73.8952 72.3537 75.1655 71.6148 76.3191H92.1352C100.548 76.3191 104.139 79.1448 104.139 85.7553V91.614C104.139 94.6989 101.196 96.1118 98.4611 96.1118C95.7259 96.1118 92.7833 94.5693 92.7833 91.614V87.3107C92.7833 86.0275 92.4593 85.4831 90.4111 85.4831H38.5722C36.5241 85.4831 36.2 86.0145 36.2 87.3107V91.9769C36.2 94.997 33.2574 96.384 30.5222 96.384L30.5093 96.371Z" fill="#69454A"/>
<path d="M70.0204 64.5238C70.15 64.5238 70.2537 64.5498 70.3444 64.6016C71.0574 65.0423 70.9667 67.5569 70.8759 68.8012C71.6407 69.8771 72.0815 71.1473 72.0815 72.5083C72.0815 74.2063 71.4074 75.7488 70.2796 76.9542H92.1222C100.548 76.9542 103.478 79.7928 103.478 85.7423V91.601C103.478 94.1675 101.002 95.4507 98.4481 95.4507C95.8944 95.4507 93.4185 94.1675 93.4185 91.601V87.2977C93.4185 85.5608 92.6926 84.822 90.3981 84.822H38.5722C36.2778 84.822 35.5518 85.5479 35.5518 87.2977V91.964C35.5518 94.4397 33.0759 95.7229 30.5222 95.7229C27.9685 95.7229 25.4926 94.4397 25.4926 91.964V85.7423C25.4926 79.7928 28.4222 76.9542 36.8481 76.9542H58.6C57.4722 75.7488 56.7981 74.2063 56.7981 72.5083C56.7981 71.0955 57.2778 69.7734 58.0944 68.6716C58.0037 67.3884 57.9518 65.0164 58.6259 64.5886C58.7167 64.5368 58.8204 64.5109 58.95 64.5109C59.6759 64.5109 60.9722 65.3404 61.8926 66.0015C62.6963 65.7422 63.5518 65.5997 64.4463 65.5997C65.3407 65.5997 66.2481 65.7552 67.0648 66.0274C67.9981 65.3534 69.2944 64.5109 70.0333 64.5109M70.0333 63.2147C69.5148 63.2147 68.6333 63.3702 66.8185 64.6146C66.0407 64.4201 65.237 64.3164 64.4463 64.3164C63.6556 64.3164 62.9037 64.4072 62.1389 64.6016C60.337 63.3702 59.4685 63.2277 58.95 63.2277C58.5741 63.2277 58.237 63.3184 57.9389 63.4999C57.2518 63.9276 56.5907 64.8349 56.7722 68.3087C55.9426 69.5789 55.5018 71.0177 55.5018 72.5083C55.5018 73.5971 55.7352 74.66 56.1889 75.658H36.8481C28.0981 75.658 24.1963 78.7689 24.1963 85.7423V91.964C24.1963 95.2822 27.3852 97.0191 30.5222 97.0191C34.1907 97.0191 36.8481 94.8933 36.8481 91.964V87.2977C36.8481 86.4422 36.8481 86.1182 38.5722 86.1182H90.3852C92.1093 86.1182 92.1093 86.4422 92.1093 87.2977V91.601C92.1093 94.9711 95.2981 96.7469 98.4352 96.7469C102.169 96.7469 104.761 94.6341 104.761 91.601V85.7423C104.761 78.7689 100.859 75.658 92.1093 75.658H72.6778C73.1315 74.6729 73.3648 73.5971 73.3648 72.5083C73.3648 71.0825 72.963 69.6826 72.1852 68.4513C72.3926 64.8738 71.7185 63.9406 71.0185 63.4999C70.7204 63.3184 70.3833 63.2277 70.0074 63.2277L70.0333 63.2147Z" fill="#69454A"/>
<path d="M62.1907 154.31C59.5463 154.31 57.8222 154.142 55.3852 153.662C52.2352 153.014 51.1074 150.642 51.1074 148.633C51.1074 146.067 53 143.422 56.1889 143.422C56.5 143.422 56.837 143.448 57.1741 143.5C58.8463 143.798 60.5185 143.954 62.0093 143.954C62.9037 143.954 65.3019 143.954 65.3019 134.712C65.3019 133.96 65.263 133.221 65.2111 132.521C54.5426 140.078 41.5278 146.378 29.3296 149.89C28.7593 150.085 28.137 150.188 27.5926 150.188C24.5463 150.188 22.7315 147.674 22.7315 145.237C22.7315 143.461 23.6907 141.284 26.4 140.493C39.9463 136.566 52.5074 130.318 62.7741 122.411C62.3722 121.478 61.8796 120.571 61.3611 119.624L61.3093 119.534C52.3 125.561 41.3593 130.772 30.4315 134.219C29.8481 134.414 29.2259 134.531 28.6815 134.531C25.6352 134.531 23.8204 132.016 23.8204 129.579C23.8204 127.946 24.7537 125.898 27.3722 125.03C37.3667 122.139 47.6593 117.434 55.787 112.068C55.0481 111.29 54.2704 110.512 53.4796 109.773C46.7259 113.545 39.3111 116.656 31.4296 119.028C30.7037 119.236 30.0944 119.326 29.4981 119.326C26.2185 119.326 24.4555 116.864 24.4555 114.556C24.4555 112.392 25.8944 110.655 28.3056 109.916C37.1852 107.427 45.2093 104.083 51.6907 100.195H41.6833C38.9093 100.195 37.4704 97.8875 37.4704 95.6062C37.4704 93.325 38.7926 91.0178 41.6833 91.0178H87.0926C89.9833 91.0178 91.5 93.325 91.5 95.6062C91.5 97.8875 89.9574 100.195 87.0926 100.195H78.4593C79.7815 104.278 81.35 107.985 83.113 111.264C87.0537 108.749 90.463 106.196 93.5222 103.461C94.5463 102.528 95.8685 102.009 97.2556 102.009C100.133 102.009 102.661 104.407 102.661 107.142C102.661 108.607 101.857 110.059 100.406 111.212C96.0111 114.608 91.9926 117.356 88.1167 119.611C92.4981 125.963 97.787 131.433 103.867 135.904C105.604 137.188 106.602 138.976 106.602 140.817C106.602 143.746 104.087 146.222 101.106 146.222C99.6537 146.222 98.15 145.639 96.763 144.524C94.0148 142.295 91.1241 139.819 88.5315 136.851C79.3019 126.728 72.3926 114.051 68.5685 100.182H67.3759C65.2241 101.958 63.4611 103.293 61.7889 104.446C71.1611 112.807 76.113 123.28 76.113 134.764C76.113 148.257 71.8222 154.271 62.1907 154.271V154.31Z" fill="#69454A"/>
<path d="M87.0926 91.6918C89.5685 91.6918 90.8518 93.6101 90.8518 95.6322C90.8518 97.6542 89.5685 99.5726 87.0926 99.5726H77.5778C78.9518 103.967 80.6889 108.27 82.8926 112.21C86.8333 109.735 90.4889 107.09 93.963 103.967C94.9741 103.046 96.1537 102.683 97.2556 102.683C99.7315 102.683 102.013 104.783 102.013 107.168C102.013 108.361 101.378 109.644 100.004 110.733C95.9722 113.844 91.6685 116.864 87.1833 119.43C91.7593 126.209 97.2556 131.873 103.478 136.449C105.215 137.732 105.954 139.378 105.954 140.843C105.954 143.319 103.854 145.6 101.106 145.6C99.913 145.6 98.5389 145.146 97.1648 144.044C94.2352 141.66 91.487 139.288 89.0241 136.449C79.5093 126.015 72.7296 113.105 69.0611 99.5596H67.1426C65.0426 101.296 62.9296 102.943 60.7389 104.407C70.8111 113.105 75.4778 123.811 75.4778 134.79C75.4778 148.983 70.7204 153.649 62.2037 153.649C59.4555 153.649 57.8093 153.468 55.5278 153.014C52.8704 152.47 51.7685 150.538 51.7685 148.62C51.7685 146.378 53.4278 144.057 56.2018 144.057C56.487 144.057 56.7852 144.083 57.0833 144.135C58.6389 144.407 60.3759 144.589 62.0222 144.589C64.213 144.589 65.963 142.761 65.963 134.699C65.963 133.507 65.8722 132.405 65.7815 131.316C55.1648 139.002 41.8907 145.6 29.1611 149.255C28.6167 149.437 28.0593 149.527 27.6055 149.527C24.9481 149.527 23.3926 147.324 23.3926 145.224C23.3926 143.487 24.4037 141.75 26.5944 141.102C40.1407 137.162 52.8704 130.94 63.5778 122.619C63.0333 121.245 62.2944 119.961 61.5685 118.588C52.1444 124.991 40.9704 130.214 30.263 133.597C29.7185 133.779 29.1611 133.869 28.7074 133.869C26.1407 133.869 24.4944 131.77 24.4944 129.566C24.4944 128.011 25.4148 126.365 27.6055 125.626C37.4055 122.787 48.113 118.03 56.8111 112.171C55.8 111.07 54.7111 109.981 53.6093 108.97C46.4667 113.001 38.8704 116.112 31.2741 118.393C30.6389 118.575 30.0815 118.665 29.537 118.665C26.7889 118.665 25.1426 116.656 25.1426 114.543C25.1426 112.897 26.1537 111.251 28.5259 110.512C37.6778 107.946 46.6481 104.291 53.9722 99.5337H41.7093C39.3241 99.5337 38.1444 97.5246 38.1444 95.5933C38.1444 93.662 39.337 91.6529 41.7093 91.6529H87.1185M87.1185 90.3567H41.6833C38.4944 90.3567 36.8222 92.988 36.8222 95.5933C36.8222 98.1986 38.5333 100.83 41.6833 100.83H49.2667C43.2389 104.174 36.0315 107.064 28.15 109.268C25.4278 110.111 23.8204 112.068 23.8204 114.543C23.8204 117.175 25.8167 119.961 29.5111 119.961C30.1722 119.961 30.8333 119.858 31.6111 119.637C39.4018 117.291 46.713 114.245 53.4018 110.551C53.8685 111.005 54.3481 111.459 54.8018 111.925C46.8426 117.071 36.887 121.569 27.2426 124.368C24.2481 125.367 23.1981 127.7 23.1981 129.553C23.1981 132.301 25.2593 135.153 28.7074 135.153C29.3296 135.153 30.0037 135.036 30.6778 134.816C41.4111 131.42 52.1574 126.339 61.1148 120.441C61.4259 121.037 61.737 121.608 61.9963 122.191C51.8722 129.89 39.5315 135.982 26.2444 139.845C23.7296 140.584 22.1093 142.684 22.1093 145.211C22.1093 147.959 24.1704 150.811 27.6185 150.811C28.2278 150.811 28.9148 150.694 29.5889 150.474C41.45 147.065 54.1148 140.986 64.6667 133.688C64.6796 134.012 64.6926 134.349 64.6926 134.686C64.6926 143.28 62.7093 143.28 62.0481 143.28C60.5833 143.28 58.95 143.124 57.3296 142.839C56.9537 142.774 56.5778 142.748 56.2278 142.748C54.5815 142.748 53.0778 143.409 52.0018 144.628C51.0426 145.704 50.4981 147.155 50.4981 148.607C50.4981 150.862 51.7555 153.545 55.2815 154.271C57.7833 154.777 59.5333 154.932 62.2296 154.932C72.3018 154.932 76.8 148.711 76.8 134.777C76.8 123.345 71.9907 112.91 62.8648 104.524C64.3037 103.5 65.8463 102.32 67.6481 100.843H68.1148C71.9907 114.621 78.887 127.22 88.1037 137.304C90.7093 140.299 93.6259 142.787 96.387 145.03C97.9037 146.235 99.537 146.87 101.144 146.87C104.476 146.87 107.289 144.096 107.289 140.817C107.289 138.769 106.2 136.786 104.294 135.386C98.4611 131.096 93.3537 125.859 89.0889 119.819C92.7963 117.615 96.6593 114.958 100.833 111.731C102.467 110.422 103.348 108.801 103.348 107.129C103.348 104.044 100.522 101.348 97.2944 101.348C95.7518 101.348 94.2741 101.919 93.1204 102.969C90.2426 105.535 87.0537 107.959 83.3981 110.318C81.9074 107.466 80.5593 104.278 79.3926 100.83H87.1315C90.4111 100.83 92.187 98.1338 92.187 95.5933C92.187 93.0528 90.45 90.3567 87.1315 90.3567H87.1185Z" fill="#69454A"/>
<path d="M229.478 157.641C224.202 157.641 219.911 153.312 219.911 147.972C219.911 144.239 221.985 140.973 225.589 139.041C232.407 135.308 239.031 130.214 244.878 124.213C242.622 122.308 240.393 120.61 238.215 119.158C235.415 117.136 234.365 114.816 234.028 112.884C232.693 114.271 231.344 115.567 230.022 116.747C228.091 118.549 225.563 119.56 222.97 119.56C217.643 119.56 213.313 115.347 213.313 110.175C213.313 107.324 214.635 104.589 217.046 102.476C225.239 95.0748 233.406 83.5647 237.839 73.1564C239.394 69.3327 242.972 66.9218 247.133 66.9218C251.93 66.9218 256.881 70.3696 256.881 76.1247C256.881 77.5634 256.609 78.8855 256.026 80.1687C255.844 80.6094 255.65 81.0501 255.443 81.4908L267.252 81.3742C272.58 81.3742 276.663 82.7481 279.398 85.4442C281.667 87.6866 282.872 90.7585 282.872 94.336C282.872 96.2932 282.522 98.3801 281.835 100.558C275.224 122.463 256.687 144.343 234.624 156.267C233.004 157.149 231.163 157.641 229.452 157.641H229.478ZM243.478 101.983C245.513 101.983 247.431 102.58 249.194 103.746C251.761 105.392 254.224 107.168 256.648 109.125C258.528 105.976 260.135 102.774 261.393 99.6374L244.774 99.767C244.256 100.506 243.724 101.245 243.18 101.983C243.27 101.983 243.374 101.983 243.465 101.983H243.478Z" fill="#69454A"/>
<path d="M247.146 70.1622C250.348 70.1622 253.654 72.3917 253.654 76.1247C253.654 77.0968 253.472 77.9912 253.083 78.8466C252.267 80.7391 251.333 82.6963 250.231 84.7831L266.889 84.6276C267.019 84.6276 267.135 84.6276 267.265 84.6276C271.698 84.6276 275.043 85.6905 277.143 87.7644C278.802 89.4105 279.657 91.627 279.657 94.349C279.657 95.9692 279.359 97.732 278.776 99.5855C272.385 120.752 254.47 141.893 233.12 153.429C231.967 154.064 230.67 154.414 229.478 154.414C225.991 154.414 223.152 151.536 223.152 147.985C223.152 145.444 224.565 143.28 227.131 141.906C235.194 137.499 242.92 131.316 249.544 124.006C246.317 121.076 243.128 118.549 240.03 116.488C238.111 115.101 237.165 113.403 237.165 111.381C237.165 108.05 240.068 105.237 243.491 105.237C244.878 105.237 246.2 105.652 247.418 106.455C250.906 108.685 254.198 111.173 257.439 113.999C261.043 108.542 263.894 102.839 265.696 97.4209C265.852 97.0191 265.904 96.721 265.904 96.5525C265.943 96.5525 265.709 96.384 264.724 96.384L243.076 96.5654C238.396 103.448 233.017 109.761 227.87 114.362C226.496 115.632 224.759 116.345 222.983 116.345C219.444 116.345 216.567 113.584 216.567 110.201C216.567 108.296 217.5 106.429 219.198 104.926C227.728 97.2135 236.231 85.2498 240.833 74.4526C241.922 71.7825 244.281 70.1882 247.146 70.1882M247.146 63.7073C241.65 63.7073 236.944 66.8699 234.844 71.951C230.58 81.9315 222.75 92.975 214.868 100.091C211.77 102.839 210.072 106.416 210.072 110.201C210.072 117.162 215.867 122.826 222.97 122.826C226.367 122.826 229.659 121.53 232.226 119.158C232.459 118.937 232.706 118.73 232.952 118.497C233.82 119.702 234.909 120.791 236.218 121.737L236.322 121.802L236.426 121.867C237.606 122.658 238.811 123.513 240.03 124.459C235.052 129.151 229.607 133.157 224.02 136.216C219.367 138.717 216.67 143.02 216.67 147.985C216.67 155.101 222.413 160.895 229.478 160.895C231.759 160.895 234.093 160.286 236.218 159.119C258.956 146.831 278.102 124.213 284.972 101.504C285.75 99.0282 286.139 96.6173 286.139 94.349C286.139 89.8901 284.609 86.0275 281.706 83.15C278.348 79.8317 273.487 78.1467 267.278 78.1467H266.824L259.98 78.2115C260.083 77.5245 260.135 76.8376 260.135 76.1247C260.135 69.1512 254.431 63.6813 247.146 63.6813V63.7073ZM253.822 102.969L256.363 102.943C256.143 103.396 255.909 103.837 255.663 104.291C255.054 103.837 254.431 103.396 253.809 102.956L253.822 102.969Z" fill="white"/>
<path d="M229.478 156.993C224.552 156.993 220.559 152.949 220.559 147.972C220.559 144.485 222.504 141.439 225.9 139.612C232.965 135.749 239.822 130.435 245.837 124.174C243.374 122.061 240.95 120.208 238.591 118.626C235.272 116.241 234.572 113.39 234.572 111.394C232.913 113.169 231.254 114.803 229.62 116.267C227.793 117.965 225.433 118.912 222.996 118.912C218.031 118.912 213.987 114.997 213.987 110.175C213.987 107.518 215.231 104.952 217.5 102.956C225.757 95.4896 234.002 83.8888 238.461 73.4027C239.926 69.8123 243.27 67.5569 247.159 67.5569C251.631 67.5569 256.259 70.7585 256.259 76.1117C256.259 77.4597 256 78.6911 255.469 79.8965C255.157 80.6354 254.82 81.3872 254.457 82.1389L267.278 82.0223C272.424 82.0223 276.365 83.3314 278.97 85.9108C281.148 88.0625 282.25 90.9011 282.25 94.336C282.25 96.2284 281.913 98.2505 281.252 100.363C274.693 122.126 256.272 143.85 234.352 155.697C232.822 156.527 231.098 156.993 229.478 156.993ZM243.478 102.632C245.383 102.632 247.185 103.189 248.831 104.291C251.58 106.053 254.224 107.972 256.817 110.098C259.072 106.403 260.939 102.632 262.352 98.9893L244.437 99.1319C243.569 100.376 242.687 101.595 241.78 102.8C242.337 102.696 242.894 102.632 243.478 102.632Z" fill="#69454A"/>
<path d="M247.146 70.1622C250.348 70.1622 253.654 72.3916 253.654 76.1246C253.654 77.0968 253.472 77.9911 253.083 78.8466C252.267 80.739 251.333 82.6963 250.231 84.7831L266.889 84.6276C267.019 84.6276 267.135 84.6276 267.265 84.6276C271.698 84.6276 275.043 85.6904 277.143 87.7643C278.802 89.4105 279.657 91.627 279.657 94.3489C279.657 95.9692 279.359 97.732 278.776 99.5855C272.385 120.752 254.47 141.893 233.12 153.429C231.967 154.064 230.67 154.414 229.478 154.414C225.991 154.414 223.152 151.536 223.152 147.985C223.152 145.444 224.565 143.28 227.131 141.906C235.194 137.499 242.92 131.316 249.544 124.006C246.317 121.076 243.128 118.549 240.03 116.488C238.111 115.101 237.165 113.403 237.165 111.381C237.165 108.05 240.069 105.237 243.491 105.237C244.878 105.237 246.2 105.652 247.419 106.455C250.906 108.685 254.198 111.173 257.439 113.999C261.043 108.542 263.894 102.839 265.696 97.4209C265.852 97.0191 265.904 96.7209 265.904 96.5524C265.943 96.5524 265.709 96.3839 264.724 96.3839L243.076 96.5654C238.396 103.448 233.017 109.761 227.87 114.362C226.496 115.632 224.759 116.345 222.983 116.345C219.444 116.345 216.567 113.584 216.567 110.201C216.567 108.296 217.5 106.429 219.198 104.926C227.728 97.2135 236.231 85.2497 240.833 74.4526C241.922 71.7824 244.281 70.1881 247.146 70.1881M247.146 65.0034C242.181 65.0034 237.93 67.855 236.037 72.4565C231.707 82.6055 223.722 93.8434 215.711 101.089C212.924 103.539 211.369 106.792 211.369 110.214C211.369 116.462 216.58 121.543 222.97 121.543C226.043 121.543 229.024 120.363 231.357 118.212C231.967 117.667 232.589 117.084 233.198 116.501C233.963 117.939 235.143 119.404 236.97 120.713C237.022 120.752 237.074 120.791 237.126 120.817C238.707 121.88 240.328 123.072 241.974 124.381C236.633 129.592 230.709 134.038 224.617 137.369C220.391 139.65 217.941 143.526 217.941 147.998C217.941 154.401 223.113 159.612 229.452 159.612C231.526 159.612 233.639 159.054 235.57 158.004C258.035 145.859 276.935 123.539 283.702 101.141C284.441 98.7948 284.817 96.5135 284.817 94.3748C284.817 90.2789 283.417 86.7144 280.772 84.1091C277.661 81.0372 273.111 79.4817 267.252 79.4817H266.811L258.333 79.5725C258.657 78.4837 258.826 77.343 258.826 76.1765C258.826 70.6936 254.444 65.0293 247.133 65.0293L247.146 65.0034ZM249.557 101.711L258.437 101.633C257.737 103.163 256.946 104.705 256.091 106.235C254.185 104.783 252.241 103.422 250.231 102.126C250.011 101.983 249.778 101.841 249.544 101.698L249.557 101.711Z" fill="white"/>
<path d="M297.3 94.8545C295.174 94.8545 292.983 94.0897 291.117 92.7028C286.93 89.592 285.659 84.4461 288.226 80.9983C289.522 79.2485 291.661 78.2504 294.085 78.2504C296.211 78.2504 298.402 79.0151 300.268 80.4021C304.456 83.5129 305.713 88.6587 303.146 92.1066C301.85 93.8564 299.711 94.8545 297.3 94.8545Z" fill="#69454A"/>
<path d="M294.072 80.8427C295.576 80.8427 297.248 81.3871 298.713 82.4759C301.681 84.6924 302.731 88.2958 301.059 90.5511C300.217 91.6918 298.83 92.2621 297.287 92.2621C295.744 92.2621 294.111 91.7177 292.646 90.6289C289.678 88.4124 288.628 84.8091 290.3 82.5537C291.143 81.4131 292.53 80.8427 294.072 80.8427ZM294.072 75.658C290.831 75.658 287.941 77.0449 286.139 79.4558C284.363 81.8408 283.857 84.9776 284.752 88.0495C285.504 90.6548 287.215 93.0398 289.548 94.7896C291.856 96.5006 294.604 97.4468 297.287 97.4468C300.528 97.4468 303.419 96.0599 305.22 93.649C308.656 89.0346 307.152 82.2945 301.798 78.3152C299.491 76.6042 296.743 75.658 294.059 75.658H294.072Z" fill="white"/>
<path d="M304.235 89.242C303.198 89.242 302.2 88.918 301.37 88.2958C300.307 87.5051 299.633 86.3386 299.465 85.0165C299.309 83.7332 299.646 82.45 300.424 81.4001C301.37 80.1299 302.874 79.3651 304.43 79.3651C305.467 79.3651 306.465 79.6892 307.294 80.3113C308.357 81.102 309.031 82.2686 309.2 83.5907C309.356 84.8739 309.019 86.1571 308.241 87.207C307.294 88.4773 305.804 89.242 304.235 89.242Z" fill="#69454A"/>
<path d="M304.443 81.9704C304.909 81.9704 305.363 82.113 305.765 82.3982C306.776 83.1499 306.957 84.6146 306.167 85.6645C305.687 86.3126 304.961 86.6496 304.235 86.6496C303.768 86.6496 303.315 86.507 302.913 86.2219C301.902 85.4701 301.72 84.0054 302.511 82.9555C302.991 82.3074 303.717 81.9704 304.443 81.9704ZM304.443 76.7857C302.057 76.7857 299.789 77.9393 298.35 79.8576C297.17 81.439 296.652 83.3962 296.898 85.3405C297.144 87.3496 298.22 89.1772 299.828 90.3826C301.111 91.3418 302.641 91.8343 304.235 91.8343C306.62 91.8343 308.889 90.6808 310.328 88.7624C312.817 85.4183 312.156 80.7002 308.85 78.2374C307.567 77.2782 306.037 76.7727 304.443 76.7727V76.7857Z" fill="white"/>
<path d="M300.398 84.809C299.361 84.809 298.363 84.485 297.533 83.8628C296.47 83.0722 295.796 81.9056 295.628 80.5835C295.472 79.3003 295.809 78.0171 296.587 76.9672C297.533 75.6969 299.024 74.9322 300.593 74.9322C301.63 74.9322 302.628 75.2562 303.457 75.8784C304.52 76.669 305.194 77.8356 305.363 79.1577C305.519 80.4409 305.181 81.7241 304.404 82.774C303.457 84.0443 301.967 84.809 300.398 84.809Z" fill="#69454A"/>
<path d="M300.606 77.5245C301.072 77.5245 301.526 77.6671 301.928 77.9523C302.939 78.7041 303.12 80.1687 302.33 81.2186C301.85 81.8667 301.124 82.2037 300.398 82.2037C299.931 82.2037 299.478 82.0612 299.076 81.776C298.065 81.0242 297.883 79.5595 298.674 78.5096C299.154 77.8615 299.88 77.5245 300.606 77.5245ZM300.606 72.3398C298.22 72.3398 295.952 73.4934 294.513 75.4118C292.024 78.7559 292.685 83.474 295.991 85.9367C297.274 86.8959 298.804 87.4014 300.398 87.4014C302.783 87.4014 305.052 86.2478 306.491 84.3295C307.67 82.7481 308.189 80.7909 307.943 78.8466C307.696 76.8376 306.62 75.0099 305.013 73.8045C303.73 72.8453 302.2 72.3398 300.606 72.3398Z" fill="white"/>
<path d="M295.019 82.3852C293.981 82.3852 292.983 82.0612 292.154 81.439C291.091 80.6483 290.417 79.4817 290.248 78.1596C290.093 76.8764 290.43 75.5932 291.207 74.5433C292.154 73.273 293.657 72.5083 295.213 72.5083C296.25 72.5083 297.248 72.8323 298.078 73.4545C299.141 74.2452 299.815 75.4117 299.983 76.7338C300.139 78.0171 299.802 79.3003 299.024 80.3502C298.078 81.6204 296.587 82.3852 295.019 82.3852Z" fill="#69454A"/>
<path d="M295.226 75.1136C295.693 75.1136 296.146 75.2562 296.548 75.5414C297.559 76.2932 297.741 77.7578 296.95 78.8078C296.47 79.4558 295.744 79.7929 295.019 79.7929C294.552 79.7929 294.098 79.6503 293.696 79.3651C292.685 78.6133 292.504 77.1486 293.294 76.0987C293.774 75.4506 294.5 75.1136 295.226 75.1136ZM295.226 69.9289C292.841 69.9289 290.572 71.0825 289.133 73.0009C287.954 74.5822 287.435 76.5394 287.681 78.4837C287.928 80.4928 289.004 82.3204 290.611 83.5259C291.894 84.485 293.424 84.9905 295.019 84.9905C297.404 84.9905 299.672 83.8369 301.111 81.9186C303.6 78.5744 302.939 73.8564 299.633 71.3936C298.35 70.4344 296.82 69.9289 295.226 69.9289Z" fill="white"/>
<path d="M280.707 83.3314C276.896 83.3314 273.811 81.3353 272.852 78.2504C272.217 76.1895 272.644 73.8952 274.031 71.9639C275.289 70.2141 277.22 68.866 279.463 68.1791C280.552 67.8421 281.667 67.6736 282.769 67.6736C286.58 67.6736 289.665 69.6697 290.624 72.7546C291.259 74.8155 290.831 77.1097 289.444 79.0411C288.187 80.7909 286.256 82.1389 284.013 82.8259C282.924 83.1629 281.822 83.3314 280.707 83.3314Z" fill="#69454A"/>
<path d="M282.781 70.253C285.348 70.253 287.526 71.4843 288.161 73.5064C288.991 76.1895 286.8 79.2484 283.261 80.3372C282.406 80.5965 281.55 80.7261 280.733 80.7261C278.167 80.7261 275.989 79.4947 275.354 77.4727C274.524 74.7896 276.715 71.7306 280.254 70.6418C281.109 70.3826 281.965 70.253 282.781 70.253ZM282.781 65.0682C281.42 65.0682 280.046 65.2756 278.711 65.6904C272.346 67.6606 268.678 73.5064 270.389 79.0151C271.685 83.2148 275.743 85.9238 280.72 85.9238C282.081 85.9238 283.456 85.7164 284.791 85.3016C287.578 84.4461 289.976 82.7481 291.557 80.5446C293.424 77.9393 293.994 74.8155 293.113 71.9769C291.817 67.7773 287.759 65.0682 282.781 65.0682Z" fill="white"/>
<path d="M285.102 72.1583C282.937 72.1583 281.044 70.7455 280.396 68.6327C280.007 67.3884 280.111 66.0663 280.694 64.8997C281.291 63.7073 282.315 62.8258 283.585 62.437C284.039 62.2944 284.518 62.2166 284.998 62.2166C287.163 62.2166 289.056 63.6295 289.704 65.7423C290.093 66.9866 289.989 68.3087 289.406 69.4753C288.809 70.6677 287.785 71.5491 286.528 71.938C286.074 72.0806 285.594 72.1583 285.115 72.1583H285.102Z" fill="#69454A"/>
<path d="M284.985 64.822C285.97 64.822 286.891 65.483 287.215 66.52C287.604 67.7772 286.943 69.0994 285.75 69.4623C285.53 69.5271 285.322 69.566 285.102 69.566C284.117 69.566 283.196 68.9049 282.872 67.868C282.483 66.6107 283.144 65.2886 284.337 64.9257C284.557 64.8608 284.765 64.822 284.985 64.822ZM284.985 59.6372C284.246 59.6372 283.507 59.7539 282.807 59.9613C278.88 61.1797 276.689 65.4052 277.92 69.3975C278.906 72.599 281.796 74.7507 285.102 74.7507C285.841 74.7507 286.58 74.634 287.28 74.4266C291.207 73.2082 293.398 68.9827 292.167 64.9905C291.181 61.7889 288.291 59.6372 284.985 59.6372Z" fill="white"/>
<path d="M279.256 72.6379C277.091 72.6379 275.198 71.2251 274.55 69.1123C273.746 66.494 275.172 63.7202 277.726 62.9295C278.18 62.787 278.659 62.7092 279.139 62.7092C281.304 62.7092 283.196 64.122 283.844 66.2348C284.233 67.4791 284.13 68.8012 283.546 69.9678C282.95 71.1603 281.926 72.0417 280.669 72.4305C280.215 72.5731 279.735 72.6509 279.256 72.6509V72.6379Z" fill="#69454A"/>
<path d="M279.139 65.3015C280.124 65.3015 281.044 65.9626 281.369 66.9995C281.757 68.2568 281.096 69.5789 279.904 69.9419C279.683 70.0067 279.476 70.0456 279.256 70.0456C278.27 70.0456 277.35 69.3845 277.026 68.3476C276.637 67.0903 277.298 65.7682 278.491 65.4052C278.711 65.3404 278.919 65.3015 279.139 65.3015ZM279.139 60.1168C278.4 60.1168 277.661 60.2335 276.961 60.4409C273.033 61.6593 270.843 65.8848 272.074 69.8771C273.059 73.0786 275.95 75.2303 279.256 75.2303C279.994 75.2303 280.733 75.1136 281.433 74.9062C285.361 73.6878 287.552 69.4623 286.32 65.47C285.335 62.2685 282.444 60.1168 279.139 60.1168Z" fill="white"/>
<path d="M274.122 75.5543C271.957 75.5543 270.065 74.1415 269.417 72.0287C268.613 69.4105 270.039 66.6366 272.593 65.846C273.046 65.7034 273.526 65.6256 274.006 65.6256C276.17 65.6256 278.063 67.0384 278.711 69.1512C279.1 70.3955 278.996 71.7177 278.413 72.8842C277.817 74.0767 276.793 74.9581 275.535 75.347C275.081 75.4895 274.602 75.5673 274.122 75.5673V75.5543Z" fill="#69454A"/>
<path d="M274.006 68.218C274.991 68.218 275.911 68.879 276.235 69.9159C276.624 71.1732 275.963 72.4953 274.77 72.8583C274.55 72.9231 274.343 72.962 274.122 72.962C273.137 72.962 272.217 72.3009 271.893 71.264C271.504 70.0067 272.165 68.6846 273.357 68.3216C273.578 68.2568 273.785 68.218 274.006 68.218ZM274.006 63.0332C273.267 63.0332 272.528 63.1499 271.828 63.3573C267.9 64.5757 265.709 68.8012 266.941 72.7935C267.926 75.995 270.817 78.1467 274.122 78.1467C274.861 78.1467 275.6 78.03 276.3 77.8226C278.218 77.2264 279.839 75.8525 280.733 74.0508C281.615 72.288 281.77 70.2918 281.187 68.3994C280.202 65.1979 277.311 63.0462 274.006 63.0462V63.0332Z" fill="white"/>
<path d="M266.902 84.6276L250.244 84.7831C251.333 82.6963 252.28 80.7391 253.096 78.8466C253.485 77.9912 253.667 77.0968 253.667 76.1247C253.667 72.3917 250.361 70.1622 247.159 70.1622C244.294 70.1622 241.922 71.7695 240.846 74.4267C236.244 85.2238 227.741 97.1876 219.211 104.9C217.513 106.403 216.58 108.27 216.58 110.175C216.58 113.571 219.457 116.319 222.996 116.319C224.772 116.319 226.522 115.606 227.883 114.336C233.03 109.722 238.409 103.422 243.089 96.5395L264.737 96.358C265.722 96.358 265.956 96.5265 265.917 96.5265C265.917 96.695 265.865 96.9932 265.709 97.395C263.907 102.813 261.056 108.516 257.452 113.973C254.211 111.134 250.919 108.659 247.431 106.429C246.213 105.613 244.891 105.211 243.504 105.211C240.069 105.211 237.178 108.024 237.178 111.355C237.178 113.377 238.124 115.075 240.043 116.462C243.141 118.523 246.343 121.05 249.557 123.98C242.933 131.29 235.207 137.473 227.144 141.88C224.578 143.254 223.165 145.418 223.165 147.959C223.165 151.498 226.004 154.388 229.491 154.388C230.683 154.388 231.967 154.038 233.133 153.403C254.483 141.867 272.411 120.726 278.789 99.5596C279.372 97.706 279.67 95.9432 279.67 94.323C279.67 91.601 278.828 89.3846 277.156 87.7384C274.991 85.5997 271.53 84.5498 266.915 84.6017L266.902 84.6276Z" fill="#69454A"/>
<path d="M298.713 82.476C295.744 80.2595 291.972 80.2984 290.3 82.5537C288.628 84.8091 289.678 88.4254 292.646 90.6289C295.615 92.8454 299.387 92.8065 301.059 90.5512C302.731 88.2958 301.681 84.6795 298.713 82.476Z" fill="#69454A"/>
<path d="M305.752 82.3982C304.741 81.6464 303.289 81.8927 302.511 82.9426C301.733 83.9925 301.915 85.4572 302.913 86.2089C303.924 86.9607 305.376 86.7145 306.154 85.6645C306.931 84.6146 306.75 83.15 305.752 82.3982Z" fill="#69454A"/>
<path d="M301.928 77.9652C300.917 77.2134 299.465 77.4597 298.687 78.5096C297.909 79.5595 298.091 81.0242 299.089 81.776C300.1 82.5278 301.552 82.2815 302.33 81.2316C303.107 80.1817 302.926 78.717 301.928 77.9652Z" fill="#69454A"/>
<path d="M293.696 79.3651C294.707 80.1169 296.159 79.8706 296.937 78.8207C297.715 77.7708 297.533 76.3061 296.535 75.5543C295.524 74.8026 294.072 75.0488 293.294 76.0987C292.517 77.1486 292.698 78.6133 293.696 79.3651Z" fill="#69454A"/>
<path d="M280.241 70.6418C276.702 71.7306 274.511 74.8025 275.341 77.4727C276.17 80.1558 279.709 81.439 283.248 80.3372C286.787 79.2355 288.978 76.1765 288.148 73.5064C287.318 70.8233 283.78 69.54 280.241 70.6418Z" fill="#69454A"/>
<path d="M285.75 69.4623C286.956 69.0864 287.604 67.7772 287.215 66.5199C286.826 65.2627 285.543 64.5498 284.337 64.9256C283.131 65.3015 282.483 66.6107 282.872 67.868C283.261 69.1253 284.544 69.8382 285.75 69.4623Z" fill="#69454A"/>
<path d="M279.904 69.9419C281.109 69.566 281.757 68.2568 281.369 66.9995C280.98 65.7422 279.696 65.0293 278.491 65.4052C277.285 65.7811 276.637 67.0903 277.026 68.3476C277.415 69.6049 278.698 70.3178 279.904 69.9419Z" fill="#69454A"/>
<path d="M274.77 72.8583C275.976 72.4824 276.624 71.1732 276.235 69.9159C275.846 68.6586 274.563 67.9457 273.357 68.3216C272.152 68.6975 271.504 70.0067 271.893 71.264C272.281 72.5213 273.565 73.2342 274.77 72.8583Z" fill="#69454A"/>
</g>
<defs>
<filter id="filter0_d_60_339" x="9.89813" y="52.0041" width="609.765" height="122.891" filterUnits="userSpaceOnUse" color-interpolation-filters="sRGB">
<feFlood flood-opacity="0" result="BackgroundImageFix"/>
<feColorMatrix in="SourceAlpha" type="matrix" values="0 0 0 0 0 0 0 0 0 0 0 0 0 0 0 0 0 0 127 0" result="hardAlpha"/>
<feOffset dx="3" dy="4"/>
<feGaussianBlur stdDeviation="5"/>
<feColorMatrix type="matrix" values="0 0 0 0 0.407843 0 0 0 0 0.192157 0 0 0 0 0 0 0 0 0.2 0"/>
<feBlend mode="normal" in2="BackgroundImageFix" result="effect1_dropShadow_60_339"/>
<feBlend mode="normal" in="SourceGraphic" in2="effect1_dropShadow_60_339" result="shape"/>
</filter>
</defs>
</svg>
